<?xml version="1.0" encoding="utf-8"?>
<!-- Generator: Adobe Illustrator 24.0.0, SVG Export Plug-In . SVG Version: 6.00 Build 0)  -->
<svg version="1.1" id="Layer_1" xmlns="http://www.w3.org/2000/svg" xmlns:xlink="http://www.w3.org/1999/xlink" x="0px" y="0px"
	 viewBox="0 0 486.7 486.8" style="enable-background:new 0 0 486.7 486.8;" xml:space="preserve">
<style type="text/css">
	.st0{fill:#0D0E94;}
	.st1{fill:#E9FC24;}
	.st2{fill:#FCFDFD;}
	.st3{fill:#F70804;}
	.st4{fill:#21B304;}
</style>
<g>
	<path class="st0" d="M486.7,244.7c-0.9,134.9-108,235.6-229.7,241.8C113.2,493.8,0.6,380,0,245.3C-0.6,109.5,107.4,1.1,241.2,0
		C378.8-1.1,487.5,109.9,486.7,244.7z M243.3,8.9C114.1,8.6,9.2,113.8,8.9,243.9C8.6,372,113.8,477.6,242.1,478.1
		C372,478.6,477.2,374,477.9,245.6C478.6,114.3,374,9.2,243.3,8.9z"/>
	<path class="st1" d="M243.3,8.9C374,9.2,478.6,114.3,477.9,245.6C477.2,374,372,478.6,242.1,478.1C113.7,477.6,8.6,372,8.9,243.9
		C9.2,113.8,114.1,8.6,243.3,8.9z M433.5,170.6c0.4,0.1,0.7,0.2,1.1,0.3c2.6,6.3,5.8,12.5,7.6,19.1c1.5,5.6,0.2,7.7-5.4,9.3
		c-6.9,1.9-13.8,3.8-20.6,5.8c-2.3,0.7-5.1,1-6,3.9c-0.3,1-2.2,1.7-0.9,2.9c0.5,0.5,1.9,0.1,2.8-0.1c7.9-2,15.8-4.1,23.7-6.1
		c3.2-0.8,6.5-2.6,9.7-1.6c2.9,0.9,1.1,4.8,2.6,7c0.3,0.5,0.6,1.3,1.1,1.5c0.8,0.3,1-0.6,1.3-1.2c0.8-2.1,3.1-4,1.8-6.4
		c-1.8-3.3-1.2-5.4,2.3-6.8c1.1-0.4,1.5-1.8,1.5-3c0-0.8-0.8-1.3-1.4-1c-7,3.6-6.4-1.8-7-5.8c-0.1-1-0.7-1.9-1-2.8
		c-4-11.8-9-23.2-14.8-34.3c-13.2-25.3-31.3-46.7-52.7-65.4c-1.9-1.7-2.2-2.7-1.2-4.9c2.1-4.3,0.5-8-2.5-11.3
		c-3-3.2-6.5-5.6-10.3-7.6c-2.3-1.2-4.6-2.3-6.6-4.1c-2.1-1.9-3.8-3.3-0.4-5.4c1.4-0.9,1.7-1.9,0.8-3.3c-1.1-1.6-2.2-0.8-3.5-0.2
		c-5.2,2.6-5.6,7.4-1,12.9c1.2,1.5,4.1,2.4,2.6,5.3c-1.4,2.6-2.4,5.4-5,7.6c-0.7-2-1.2-3.7-1.8-5.4c-3.6-9.1-17.1-13.1-24.9-7.4
		c-1.5,1.1-2.9,2.3-2.5,4.5c0.4,2.1,1.9,2.9,3.8,3.5c1.5,0.4,3.7,0,3.9,2.3c0.2,2.2-1.6,2.8-3.2,3.3c-3.4,1.2-2.4,2.6-0.7,4.6
		c1.7,1.9,3.6,2.2,5.8,1.6c3.5-0.9,7.1-1.8,10.6-2.7c2.7-0.7,3.6,0.4,3.5,3.1c-0.1,2.1-1.1,3.8-2.2,5.4c-2.6,3.7-5.1,7.4-7.6,11.1
		c-1.5,2.3-1.8,5.5,0.1,6.9c2.5,1.8,3.2-1.7,4.3-3.3c5.1-7.2,10.2-14.4,14.9-21.8c2.5-4,4.6-1.7,6.9-0.2c2.5,1.6,3.9,3.3,1.4,6.4
		c-5.1,6.3-9.8,13-14.9,19.4c-2.7,3.3-3.4,6.6-1.2,10.9c6.8-8.3,13.6-16.2,20-24.5c3.5-4.6,4.6-5.2,8.7-1.5
		c4.5,4.1,8.8,8.4,13.2,12.6c0.5,0.5,1.6,1.1,0.8,2c-0.3,0.4-1.3,0.4-1.8,0.2c-4.7-1-8.7-3.7-13.6-4.5c-6.6-1.1-10.3,2.2-6.9,8
		c4.7,7.9,5.7,15.2,2,23.3c-0.1,0.1-0.1,0.3,0,0.5c0.1,1.1-0.8,2.5,0.4,3.2c1.3,0.7,2-0.8,2.8-1.5c7.3-6.3,14.5-12.7,21.7-19.1
		c1.9-1.7,4.4-3.3,5.4,0.1c1.3,4.5,2.5,8.9,4.9,13.1c1.1,1.8-0.4,4-2.1,5.2c-2.6,1.7-5.6,1-8.2,0.2c-2.3-0.8-0.6-2.7-0.1-4.2
		c0.3-0.8,0.3-1.7-0.6-2.1c-1.3-0.5-2.9-1-3.7,0.1c-2.1,2.9-3.3,6.2-2.4,9.8c0.8,3.1,2.9,4.7,6.2,4.8c3,0.1,6,0.3,8.9,0.7
		c1.8,0.2,3.2,1.1,3.5,3.1c0.3,1.8-0.3,3.3-1.9,4.3c-2.9,1.9-5.9,3.8-8.8,5.6c-2.1,1.3-4.6,2.2-5.1,5.1c-0.2,1.2-1.6,2.7-0.3,3.6
		c0.9,0.7,2.1-0.6,3.1-1.2c8.5-4.9,17-9.8,25.5-14.7c1.8-1,3.6-2.2,4.9,0.6c2.4,5.1,6,9.6,7.5,15.1c-0.9,0.4-0.9,1.1-0.8,1.9
		c-3.7-1.7-7.3-2.7-10.2,1.3c-2.7,3.7-2.6,7.8-0.3,11.7c1.6,2.7,3.3,5.4,6.3,6.9c2.5,1.3,1.8,2.3-0.4,3.2c-4.1,1.6-9.8-1.1-11.7-5.9
		c-3.5-8.5,1.1-15.1,5.5-21.6c1.3-1.9,3-3.6,4.2-5.5c0.8-1.2,0.5-2.7-0.4-3.7c-0.8-0.8-1.6,0.1-2.1,0.6
		c-6.5,6.9-13.3,13.6-15.6,23.3c-2,8.3,2.7,16.4,10.8,18.7c8.6,2.4,16.9-1.9,19.5-10.2c0.4-1.4,1.1-3.6-0.7-3.9c-5.8-1-5-4.1-3-7.9
		C433.7,172.8,433.5,171.6,433.5,170.6z M201.1,417.5c0-0.2,0-0.5,0-0.7c5.4,0.9,10.8,2,16.2,2.7c1.8,0.3,4.7,1.6,5.2-0.5
		c0.4-1.7-2.3-3.4-4.2-4.4c-0.8-0.5-1.9-0.6-2.9-0.7c-13.3-1.6-25.6-6.6-38.3-10.4c-2.3-0.7-4.7-1.6-6.1-3.8c-1.3-2-0.3-6-3.2-6
		c-2.3,0-2.5,3.9-3.7,6c-1.4,2.6-2.7,3-4,0.1c-3.1-7.2-8.8-10.6-16.2-11.6c-1.8-0.2-3.3-0.5-3.5-2.7c-0.3-3-2.1-5.1-4.4-6.9
		c-1-0.8-2.1-1.7-1.5-3.3c0.5-1.3,1.8-1.3,2.9-1.6c7.6-1.5,12.9,2.1,17,7.9c2.7,3.9,4.9,8.2,7.3,12.4c1.2-0.8,1-1.9,1-2.8
		c-0.1-7.5-10.2-22.1-17.4-24.2c-4.9-1.5-10.1-2-14.7,1.7c-1,0.9-0.6,4.1-3.2,2.4c-2.1-1.4-4.7-2.9-3.2-6.4c0.3-0.7,0.6-1.6,0.6-2.4
		c-0.1-1.3-0.4-3.4-2.2-1.3c-3.8,4.6-5.7,2.9-7.4-1.6c-0.4-1-1.3-1.9-2.1-2.7c-6.6-6.9-11.9-14.7-17-22.7c-2.5-3.9-4.2-8.4-7.6-12
		c-3.3,5.6,0.3,9.5,2.5,13.6c0.6,1.2,2.4,2.2,1.2,3.9c-0.7,1-1.9,1.2-3.1,1c-1.8-0.3-2.4-1.5-2.4-3.2c0-1.6-0.7-2.5-2.4-2.6
		c-1.9,0-2.6,1.3-2.9,2.9c-0.5,3.1-0.1,6,1.8,8.6c-0.7,0.3-0.9,0.8-0.5,1.5c-2.2,0.6-4.4,1.2-5.4,3.6c-0.6-0.6-1.2-0.7-1.8,0
		c-1.7-1.3-0.5-3.9-2.8-5.8c-1,4.8-6.4,7.4-4,13.3c4.7,11.2,8.5,22.7,10.8,34.7c0.2,1.1-0.1,3.2,1.7,3.1c1.6-0.1,2-2.1,2.3-3.5
		c0.2-1.1-0.1-2.3-0.3-3.5c-0.7-4.1-1.5-8.2-2.2-12.3c-1-5.4-1-5.5,4.1-3.8c4,1.3,8.6,2.2,10.8-2c2.3-4.4,4.9-7,9.7-8.6
		c4.1-1.4,5.9-1.3,7.1,3c0.9,3.3-0.8,5.3-3,7.4c-4.8,4.6-9.4,9.3-14.2,13.9c-1.7,1.6-2.6,3.5-2,5.8c0.3,1.3-0.2,3,1.1,3.6
		c1.5,0.7,2.2-1.1,3-2c6.3-6.4,12.7-12.7,18.7-19.4c3-3.3,4.9-2.2,7.7,0.2c3.1,2.5,2,4.1-0.1,6.4c-4.8,5.3-9.3,10.9-14.2,16.1
		c-2.4,2.6-2.8,4.9-1.5,8.1c1,2.6,1.8,2.9,3.5,0.7c4.9-6.1,9.9-12.1,14.9-18.1c1.2-1.4,2.3-2.8,3.5-4.2c0.9-1.1,1.9-2,3.4-0.9
		c1.6,1.2,3.7,2.3,4.4,3.9c0.7,1.7-1.8,1.3-2.8,1.9c-3,1.8-3.4,4.8-0.7,6.7c1.1,0.7,2.5,1,3.7,1.5c0.9,0.4,1.9,0.8,1.9,2
		c0,1.1-0.7,1.8-1.7,2.2c-1.8,0.6-4.7,0.9-3.7,3.5c1,2.5,3,4.9,6.5,4.2c2.9-0.5,5.9-0.9,8.9-1.2c2.1-0.2,4.5-1.5,6.1,0.4
		c1.8,2.2,0.5,4.8-0.6,7c-1.9,3.7-4,7.3-5.8,11c-1.4,2.9,0.2,8.4,2.7,8.6c2.8,0.2,3.1-2.9,4-4.7c3.2-6.6,6-13.3,9.2-19.9
		c0.9-2,1.7-4.7,4.8-4.1c3.5,0.6,2.9,3.5,2.9,6c-0.1,4.5,0.3,9,1.1,13.4c2.7,13.7,14.5,21.4,27.7,18.1c7-1.7,10.3-7.3,8.7-14.3
		C209.6,423.8,205.3,420.7,201.1,417.5z M43.7,201.7c0.9,1.2,1.6,2.6,2.6,3.6c3.5,3.6,7.8,5.1,12.7,3.4c4.6-1.6,6.7-5.2,7.3-9.8
		c0.3-2,0.1-4.8-2-5.1c-2.6-0.3-5.4-2.5-8-0.1c-2,1.8-2,4-1.3,6.4c0.3,1,2.7,2.1,0.5,3.1c-1.5,0.7-2.7-0.9-3.4-2.3
		c-1.7-3.2,0.3-7.5,3.9-9c5.3-2.1,5.3-2.1,1.1-5.5c-0.8-0.6-1.7-1.3-1.2-2.4c0.4-1,0.8-2,2.3-2.3c1.8-0.4,3.3,0.2,4.8,0.8
		c4.5,1.7,9,3.4,13.4,5.2c3.4,1.4,6.4,0.9,9.8-1.9c-10.2-4.3-20-8.4-29.7-12.7c-1.7-0.8-4.9-0.7-3.9-4c0.9-2.9,2.2-5.6,6.1-5.7
		c1.9-0.1,3.6,0.5,5.2,1.3c6.1,3,12.2,6.1,18.3,9.1c1.6,0.8,3.3,1.6,5.2,1.6c1.7,0,3.9-0.1,4.4-1.6s-1.8-2-3-2.6
		c-8.8-4.7-17.6-9.3-26.4-14c-1.2-0.6-3.6-1.1-2.5-2.9c1.8-3.1,2-7.1,5.4-9.2c0.4,0,0.8,0.1,1.2,0.1c-0.4,5.9,2.5,9.9,7.7,12.2
		c6.9,3.1,16.1-2.9,15.3-9.8c-0.4-3.7-4.9-5.5-4.6-9.8c0.1-1-3.7-2.2-1.4-4.5c2.1-2,4.3-0.9,6.3,0.6c3.8,2.9,7.7,5.8,11.5,8.8
		c1.5,1.1,2.9,2.3,4.9,2.2c1.3-0.1,3,0.2,3.7-1c0.8-1.6-1-2.3-1.9-3c-7.6-6.2-15.3-12.2-22.9-18.4c-0.9-0.7-2.8-1.2-2.1-3
		c0.6-1.6,1.8-2.9,3.7-2.9c3.2,0.1,5.7-1.6,8.2-3.2c1.6-1.1,3.2-2.4,5.4-2.2c1.1,0.1,2.5-0.1,3.1,1.1s-0.5,1.8-1,2.5
		c-2.1,2.8-2.7,5.9-0.9,8.9c1.4,2.3,3.8,3.9,6.8,3.3c3.5-0.8,6-2.9,6.3-6.8c0.2-2.5,1.8-3.3,4.1-3.4c3-0.1,5.8,0.3,8.4,2.4
		c1.2,1,3.1,3.8,5,1.8c1.7-1.9-1.4-3.3-2-5c-0.2-0.7-1.1-1.2-1.7-1.8c-5.8-6.6-11.6-13.2-17.4-19.9c-0.6-0.7-1.5-2.1-1.4-2.2
		c2-1.8,3.9-3.7,6.2-5c2.2-1.2,3.2,1.3,4.2,2.6c5.2,6.3,10.2,12.7,15.2,19.1c0.9,1.2,1.8,2.5,3.4,2.7c1.5,0.1,3.4,1.1,4.3-0.1
		c1.1-1.4-0.8-2.6-1.6-3.7c-5.6-7.7-11.2-15.3-17-22.8c-1.8-2.4-1.8-3.9,0.8-5.6c4.3-2.8,8.4-6,12.7-8.7c10-6.5,11.5-6,15.4,5.3
		c0,0.1,0,0.3,0,0.7c-3-0.2-5.8-1.4-8.8-1.2c-5,0.4-9.4,3.9-10.4,8.6c-0.9,4.4,1,7.7,4.7,9.5c3.3,1.6,6.6,0.5,9-2.3
		c2.8-3.4,1.1-6.7-1-9.9c3-0.5,5.3,0.3,7.6,1.5c5,2.6,8.6,6.6,11.7,11.2c0.9,1.3,1.9,3.4,3.7,2.2c1.2-0.8-0.5-2.3-1.1-3.4
		c-4.3-9-8.8-17.9-13.1-26.9c-0.7-1.5-2.4-3.7,0-4.7c7.4-3.2,14.6-7,22.5-8.9c0.4,1.5-0.6,1.7-1.1,2.2c-4.6,4.1-9,8.5-12.4,13.6
		c-0.8,1.1-2.7,2.8-0.5,4.2c2.6,1.6,5.1,4.1,8.6,3.4c7.8-1.7,14.1,0.6,19.2,6.6c1.1,1.2,2.7,3,4.1,2c1.6-1,0.1-3.1-0.4-4.6
		c-2.5-9-5.3-17.9-7.8-26.8c-0.4-1.4-1.8-3.4,0.9-4.1c4.9-1.3,9.7-2.9,15-3c-0.2,2.5-2.4,2.4-3.4,3.7c-2.2,2.9-3.4,6.1-0.6,8.9
		c2.8,2.8,5.7,1.6,8.2-1c1.2-1.3,2.8-2.4,3.4-4.2c0.6-1.9,2-2.6,3.9-2.2c1.7,0.3,3.3,1,3.8,2.8c0.6,1.9-0.5,3.1-1.9,4.2
		c-2.6,2.2-5.5,3.5-8.9,4.1c-4,0.6-7.9-0.4-12.5-1c3.8,5.8,6,11.9,14.1,11.3c2.8-0.2,5.8,1.4,8.6,2.4c5.4,2,9.9,5.3,14,9.3
		c0.5,0.5,1.1,1.5,2,0.8c1.2-0.9-0.3-1.3-0.4-2c-1.5-7.2-7.4-10.3-13-13.6c-2.9-1.7-4.1-2.3-0.6-5c5.8-4.4,5.9-11.5,1.3-16
		c-1.9-1.9-6.8-1.6-6-4.4c0.6-2.1,5.3-1.1,8.2-1.7c5.8-1.1,9.8,2.4,9.8,8.1c0,7.2,0.6,14.3,0.9,21.5c0.1,1.6-0.3,3.4,1.1,4.7
		c1,1,1.8,2.9,3.4,2.4c1.4-0.5,0.7-2.4,0.7-3.6c-0.1-9.7-0.2-19.3-0.5-29c-0.1-3.5,0.7-5.1,4.6-5.1c3.8,0,4.2,1.7,4,5
		c-0.3,6-0.5,12-0.2,18c0.3,6.5,5.4,11,10.3,9c4.9-2,9.6-4.7,12.7-9.1c2.7-3.8,4.2-8,1.6-12.6c-1.6-2.8-4.2-3.6-7.2-3.5
		c-2.4,0.1-4.1,1.4-4.9,3.7c-0.9,2.8,0.1,4.9,2.5,6.3c1.6,0.9,1.5,2,0.4,3.2c-1.6,2-3.5,3.6-5.7,4.7c-2.8,1.3-4.6,0.9-4.4-2.7
		c0.2-5.2,0.4-10.3,0.7-15.5c0.3-6.5,0.3-6.6,7-5.8c6.8,0.8,13.5,1.8,20.3,2.7c0.9,0.1,2.2,0.8,2.7-0.3c0.5-1-0.6-1.8-1.1-2.6
		c-0.8-1.5-1.9-2.7-3.7-3.1c-1.2-0.3-2.1-0.8-2.4-2.2c-1.7-8-8.2-9.4-14.8-10.2c-4.1-0.5-8.3,0-12.5-0.2c-2.8-0.1-5.5-0.5-4.8-4.5
		c0.2-0.9,0.2-2.1-1.1-2.5c-1.3-0.3-2.2,0.4-3,1.3c-2.6,3-1.4,7.5,2.9,10c4.9,2.9,10.4,3.5,16,3c2.7-0.2,5.3-0.1,7.9,0.5
		c1.2,0.3,2.5,0.9,2.3,2.2c-0.3,1.6-1.8,0.9-2.9,0.8c-7-0.4-14-0.9-20.9-1.1c-3.9-0.1-8.1,0.7-9.7-4.5c-0.2-0.7-1.3-1.6-2.4-1.4
		c-1.1,0.2-1,1.3-0.8,2c1.1,5.6-1.6,5.9-5.9,4.5c-1.3-0.4-3,0.1-4.5,0.2c-6.9,0.2-13.6,2.3-20.3,3.5c-21.6,3.8-42,11.4-60.9,22.6
		c-7.2,4.3-14.1,9.2-21.2,13.7c-1.7,1.1-4.2,3-5.1-0.4c-0.7-2.6-0.7-5.7,1.3-8.4c5.3-7.4,12.8-9.9,21.4-10c2.9,0,5.8,0.3,9,0.5
		c-0.8-2.4-2.3-3.1-3.8-3.6c-9.1-3.2-25.2,0.8-31.6,7.9c-5.3,5.8-5.9,13.4-1.4,19.7c1.5,2.1-0.4,2.4-1.3,3.3
		c-6,5.7-12.3,11.2-18,17.1c-13.7,14.2-25,30.2-34.5,47.5c-1.5,2.7-2.8,4.3-6.1,3.7c-1.3-0.2-3.1-0.2-3.5,1.3
		c-0.4,1.7,1.5,2,2.6,2.5c3,1.2,4.7,2.4,1.2,5.2c-1.4,1.2-2.4,3.2-3.1,5c-5,12-9,24.4-12.1,37c-0.4,1.7-2.1,4.8-0.3,5.3
		c2.2,0.7,4.5-1.7,5.7-4c0.5-1,0.9-2.1,1.4-3.1C42.7,203.5,43.1,202.3,43.7,201.7z M243,95.1c-80.9-0.6-148.9,67.2-148.1,150
		c0.8,78.9,66.7,145.4,144.3,147c84.9,1.7,152-67.4,152.8-147C392.8,163.2,325.4,94,243,95.1z M364.5,405.7c0.1-2.1-0.5-3.9-1.9-5.6
		c-4.3-5.1-10-5.6-15.9-4.4c-4.4,0.9-8.6,2.4-13,3.6c-2.2,0.6-4.3,1.4-5.7-1.8c-1-2.3-3.5-2.4-5.7-1.5c-1.8,0.7-3,2.1-3.1,4.2
		c-0.1,2.8,1.5,4.7,3.9,5.8c4.6,2.1,9.5,1.4,14.2,0.4c5-1,10-2.5,15-3.4c1.8-0.3,3.6,0.6,4.4,2.5c0.5,1.3,0.6,3.1-0.5,3.7
		c-1.5,0.8-2.8-0.9-4.2-1.6c-9.6-4.9-20.8,2-20.7,12.8c0.1,5.1,2.4,8.3,7,9.4c3.1,0.7,5.6-1,7.7-2.8c1.2-1.1,1.9-3,0.6-4.9
		c-1.7-2.6-4.1-1.4-6.2-1.2c-0.8,0.1-1.3,0.7-1.9-0.4c-1.7-2.9,0.3-7.2,3.6-7.7c5.5-0.8,7.9,2.4,9.1,7c0.9,3.7,2.6,3.7,5.2,1.5
		C361.1,417.1,363.5,411.8,364.5,405.7z M440.2,339.8c-4.5-2.1-7.7-1.8-11,0.5c-3.1,2.2-6.6,3.9-9.8,5.9c-3,1.9-3.8,1.3-3.6-2.3
		c0.4-6.7-2.7-10.4-8.9-10.7c-7.8-0.3-13.5,5.6-20.6,7.8c-2.2,0.7-3.1,4.6-0.8,7c2.8,2.9,6.2,2.3,8.9-0.1c3.1-2.8,6.4-5.1,10.1-6.9
		c1.4-0.7,3.2-1.5,4.7-0.2s0.8,3.1,0.2,4.6c-0.7,1.7-1.5,3.4-2.5,4.8c-2.9,4-7.1,6.5-11.3,8.9c-0.8,0.5-2.3,0.5-2.3,1.6
		c0,1.4,1.6,1.4,2.6,1.8c5.2,2.1,10.4,3.8,14.4-2.3c0.3-0.5,1-0.8,1.5-1.2C420.3,351.7,430,346.3,440.2,339.8z M304.6,446.5
		c3.5,0.1,6-0.9,8.3-2.2c6.1-3.5,11.5-8,11.1-15.6c-0.3-7.2-6.6-9.8-12.2-12.4c-0.5-0.2-0.9-0.4-1.4-0.5c-4-1.4-8.1-2.4-10.8-6.3
		c-2.3-3.2-5.2-2.5-7.6-0.1c-2.7,2.7-1.8,5.5,0.7,7.8c2.4,2.2,5.2,3.5,8.3,4.3c4.2,1,8.4,2,12.4,3.8c2.1,0.9,3.4,2.3,2.9,4.6
		c-0.5,2.4-2.6,1.6-4.1,1.6c-4.3,0.2-8.1,1.4-11.1,4.7c-1.9,2-3.7,4.2-2.5,7.1C299.8,446.1,302.7,446.2,304.6,446.5z M360.4,377.7
		c-0.2,7.8,2.7,10.6,9.5,10.5c5.5-0.1,8.9-3.5,12-7.2c3.1-3.8,5.5-3.8,8.5-0.1c1.4,1.8,3.3,3.3,5.3,4.4c2.6,1.4,5.1,0.9,7.2-1.4
		c1.6-1.8,3.3-3.6,2.2-6.1c-1.3-3-3.8-2.7-6.3-1.7c-1.7,0.7-2.8-0.5-4-1.5c-2.8-2.4-5.7-4.6-8.2-7.3c-5.2-5.5-11.3-5-17.5-2.6
		C362.9,367.2,360.8,372.5,360.4,377.7z M297.2,74.2c-0.1,8.1,2.4,13,7.6,14.9c2.9,1,5.5,0.7,7.6-1.9c1.9-2.3,2.4-4.9,0.8-7.4
		c-1.8-2.7-4.5-2.5-7.1-1.4c-3.8,1.6-3.9-0.9-3.8-3.4c0.2-9.7,9.2-17.7,18.9-17.2c1.5,0.1,4.3,1.9,4.5-0.6c0.2-2.2-1.2-5-3.7-6
		c-1.3-0.6-2.9-0.6-4.4-0.5C306.4,50.9,297.3,61.4,297.2,74.2z M254.7,454.7c2.2,0.1,4.3-0.3,6.2-1.5c3-2,5.5-4.5,5-8.5
		c-0.5-3.8-3.3-6.1-6.9-7.1c-4.2-1.1-8.2-0.6-11.7,2.2c-6,4.5-5.3,10.9,1.6,13.9C250.8,454.5,252.7,454.7,254.7,454.7z M253.6,435.2
		c5.6,0.1,10.3-4.1,10.4-9.2c0-4.5-4.2-8.3-9.3-8.4c-5.5-0.1-11.2,4.4-11.4,9C243,431.2,247.7,435,253.6,435.2z M176.6,82
		c-0.5,3.1,1.6,4.3,4.3,4.6c2.8,0.2,4.6-1.4,4.4-4.2c-0.2-2.6-1.5-4.8-4.6-4.9C177.8,77.5,176.2,78.8,176.6,82z M362.2,121.5
		c-0.1,2.9,1.4,4.3,4.2,4.4c2.9,0.1,4.8-1.5,5-4.4c0.1-2.9-1.6-4.7-4.6-4.7C363.8,116.9,362.3,118.6,362.2,121.5z"/>
	<path class="st0" d="M65.2,145.4c-3.4,2.1-3.6,6.1-5.4,9.2c-1,1.8,1.3,2.3,2.5,2.9c8.8,4.7,17.6,9.3,26.4,14c1.2,0.7,3.5,1.1,3,2.6
		c-0.4,1.4-2.7,1.5-4.4,1.6c-1.9,0-3.5-0.8-5.2-1.6C76,171,69.9,168,63.8,165c-1.6-0.8-3.3-1.4-5.2-1.3c-3.8,0.1-5.1,2.8-6.1,5.7
		c-1,3.3,2.1,3.3,3.9,4c9.7,4.2,19.5,8.3,29.7,12.7c-3.4,2.7-6.4,3.3-9.8,1.9c-4.4-1.8-8.9-3.5-13.4-5.2c-1.5-0.6-3-1.2-4.8-0.8
		c-1.4,0.3-1.8,1.3-2.3,2.3c-0.5,1.1,0.4,1.8,1.2,2.4c4.1,3.4,4.1,3.4-1.1,5.5c-3.7,1.4-5.6,5.8-3.9,9c0.7,1.3,1.9,3,3.4,2.3
		c2.2-1-0.3-2.1-0.5-3.1c-0.6-2.4-0.7-4.6,1.3-6.4c2.6-2.4,5.4-0.2,8,0.1c2.1,0.2,2.3,3,2,5.1c-0.6,4.6-2.7,8.3-7.3,9.8
		c-4.9,1.7-9.2,0.2-12.7-3.4c-1-1.1-1.7-2.4-2.6-3.6c-0.1-0.4-0.1-0.7-0.2-1.1c0.4-2.4,0-5.4,2-7c3.6-2.8,3.7-6.1,2.6-9.9
		c0.5-0.8,1.2-1.6,1.6-2.5c0.5-1.2,2.7-1,2-2.8c-0.1-0.3-0.9-0.5-1.3-0.5c-2.3-0.2-1.9,1.9-2.5,3c-0.4,0.8-0.4,1.9-0.5,2.9l0.1-0.1
		c-0.9,0.3-0.9,1.1-0.9,1.9c-2.4,3.2-2.5,7.2-3.7,10.8c-0.5,2.2-1,4.3-1.5,6.5c-0.5,1.1-0.9,2.1-1.4,3.2c-1.2,2.4-3.4,4.7-5.7,4
		c-1.8-0.5-0.1-3.6,0.3-5.3c3.2-12.6,7.1-24.9,12.1-37c0.8-1.8,1.7-3.8,3.1-5c3.4-2.9,1.8-4-1.2-5.2c-1.1-0.5-3-0.8-2.6-2.5
		c0.4-1.5,2.2-1.5,3.5-1.3c3.2,0.6,4.6-1.1,6.1-3.7c9.5-17.3,20.8-33.2,34.5-47.5c5.7-6,12-11.4,18-17.1c0.9-0.9,2.9-1.2,1.3-3.3
		c-4.5-6.3-3.9-13.9,1.4-19.7c6.5-7.1,22.6-11.1,31.6-7.9c1.6,0.6,3,1.2,3.8,3.6c-3.2-0.2-6.1-0.5-9-0.5c-8.6,0.1-16.1,2.6-21.4,10
		c-1.9,2.7-1.9,5.8-1.3,8.4c0.8,3.4,3.3,1.5,5.1,0.4c7.1-4.5,14-9.4,21.2-13.7c18.9-11.2,39.3-18.8,60.9-22.6
		c6.7-1.2,13.4-3.3,20.3-3.5c1.5,0,3.1-0.6,4.5-0.2c4.3,1.3,7,1.1,5.9-4.5c-0.1-0.7-0.3-1.8,0.8-2s2.2,0.7,2.4,1.4
		c1.6,5.2,5.8,4.4,9.7,4.5c7,0.2,14,0.7,20.9,1.1c1.1,0.1,2.6,0.8,2.9-0.8c0.2-1.3-1.2-1.9-2.3-2.2c-2.6-0.6-5.2-0.7-7.9-0.5
		c-5.6,0.5-11-0.2-16-3c-4.3-2.5-5.5-7-2.9-10c0.8-0.9,1.7-1.7,3-1.3c1.3,0.3,1.2,1.5,1.1,2.5c-0.7,4,2,4.4,4.8,4.5
		c4.2,0.2,8.4-0.3,12.5,0.2c6.6,0.7,13.1,2.1,14.8,10.2c0.3,1.4,1.2,1.9,2.4,2.2c1.8,0.4,2.9,1.5,3.7,3.1c0.4,0.9,1.6,1.7,1.1,2.6
		c-0.6,1-1.8,0.4-2.7,0.3c-6.8-0.9-13.5-1.9-20.3-2.7c-6.7-0.8-6.7-0.6-7,5.8c-0.2,5.2-0.5,10.3-0.7,15.5c-0.2,3.6,1.6,4,4.4,2.7
		c2.3-1.1,4.1-2.7,5.7-4.7c1-1.2,1.2-2.3-0.4-3.2c-2.5-1.4-3.5-3.6-2.5-6.3c0.8-2.3,2.5-3.5,4.9-3.7c3-0.2,5.6,0.6,7.2,3.5
		c2.6,4.6,1.1,8.8-1.6,12.6c-3.1,4.5-7.8,7.2-12.7,9.1c-4.9,2-10-2.5-10.3-9c-0.3-6-0.1-12,0.2-18c0.2-3.2-0.2-4.9-4-5
		c-3.9,0-4.7,1.6-4.6,5.1c0.4,9.7,0.4,19.3,0.5,29c0,1.2,0.7,3.1-0.7,3.6c-1.6,0.5-2.4-1.4-3.4-2.4c-1.4-1.3-1-3.1-1.1-4.7
		c-0.4-7.2-0.9-14.3-0.9-21.5c0-5.7-4-9.2-9.8-8.1c-2.9,0.5-7.6-0.5-8.2,1.7c-0.8,2.8,4,2.5,6,4.4c4.7,4.5,4.6,11.6-1.3,16
		c-3.5,2.7-2.4,3.3,0.6,5c5.6,3.2,11.5,6.4,13,13.6c0.1,0.7,1.6,1.1,0.4,2c-0.9,0.7-1.5-0.3-2-0.8c-4.1-4-8.6-7.3-14-9.3
		c-2.8-1-5.8-2.6-8.6-2.4c-8.1,0.6-10.3-5.5-14.1-11.3c4.7,0.6,8.5,1.6,12.5,1c3.4-0.5,6.3-1.9,8.9-4.1c1.4-1.1,2.5-2.4,1.9-4.2
		c-0.6-1.8-2.1-2.5-3.8-2.8c-1.9-0.4-3.3,0.3-3.9,2.2c-0.6,1.8-2.1,2.9-3.4,4.2c-2.5,2.7-5.4,3.9-8.2,1c-2.8-2.8-1.6-6.1,0.6-8.9
		c0.9-1.2,3.2-1.2,3.4-3.7c-5.3,0.1-10.1,1.7-15,3c-2.7,0.7-1.3,2.7-0.9,4.1c2.6,9,5.3,17.9,7.8,26.8c0.4,1.5,2,3.6,0.4,4.6
		c-1.4,1-3.1-0.8-4.1-2c-5.1-6-11.4-8.2-19.2-6.6c-3.4,0.7-5.9-1.8-8.6-3.4c-2.3-1.4-0.3-3.1,0.5-4.2c3.5-5.1,7.8-9.5,12.4-13.6
		c0.6-0.5,1.6-0.7,1.1-2.2c-7.9,1.9-15.1,5.6-22.5,8.9c-2.4,1.1-0.8,3.2,0,4.7c4.3,9,8.8,17.9,13.1,26.9c0.5,1.1,2.3,2.6,1.1,3.4
		c-1.8,1.2-2.9-0.9-3.7-2.2c-3.1-4.6-6.7-8.5-11.7-11.2c-2.3-1.2-4.5-2-7.6-1.5c2.1,3.2,3.8,6.5,1,9.9c-2.3,2.8-5.6,4-9,2.3
		c-3.8-1.8-5.6-5.2-4.7-9.5c1-4.7,5.3-8.2,10.4-8.6c3-0.2,5.8,1,8.8,1.2c0-0.4,0.1-0.6,0-0.7c-4-11.3-5.4-11.8-15.4-5.3
		c-4.3,2.8-8.4,6-12.7,8.7c-2.6,1.7-2.6,3.2-0.8,5.6c5.8,7.5,11.4,15.2,17,22.8c0.8,1.1,2.7,2.3,1.6,3.7c-0.9,1.1-2.8,0.2-4.3,0.1
		c-1.6-0.2-2.5-1.5-3.4-2.7c-5-6.4-10.1-12.8-15.2-19.1c-1-1.3-2-3.8-4.2-2.6c-2.3,1.3-4.2,3.2-6.2,5c-0.1,0.1,0.8,1.5,1.4,2.2
		c5.8,6.6,11.6,13.3,17.4,19.9c0.5,0.6,1.4,1.1,1.7,1.8c0.6,1.8,3.7,3.2,2,5c-1.9,2-3.7-0.8-5-1.8c-2.6-2.1-5.3-2.5-8.4-2.4
		c-2.3,0.1-3.8,0.9-4.1,3.4c-0.4,3.9-2.8,6-6.3,6.8c-2.9,0.7-5.3-0.9-6.8-3.3c-1.8-3-1.2-6,0.9-8.9c0.5-0.7,1.7-1.4,1-2.5
		c-0.7-1.2-2-1-3.1-1.1c-2.2-0.2-3.8,1.2-5.4,2.2c-2.5,1.7-5,3.3-8.2,3.2c-1.9,0-3.1,1.3-3.7,2.9c-0.7,1.7,1.1,2.2,2.1,3
		c7.6,6.2,15.3,12.3,22.9,18.4c0.9,0.8,2.7,1.5,1.9,3c-0.6,1.2-2.4,0.9-3.7,1c-2,0.1-3.4-1.1-4.9-2.2c-3.8-3-7.7-5.9-11.5-8.8
		c-2-1.5-4.2-2.6-6.3-0.6c-2.4,2.3,1.5,3.5,1.4,4.5c-0.4,4.4,4.1,6.2,4.6,9.8c0.8,6.9-8.4,12.8-15.3,9.8c-5.2-2.3-8.1-6.3-7.7-12.2
		c1.2-1.8,2.5-3.7,3.7-5.5c1.5-0.8,2.9-1.6,4.4-2.4c1.3-0.7,0.6-1.6,0.2-2.4c0-0.7,0.1-1.5,0.1-2.2c0.7-1.7,1.7-3.1,3.7-3.8
		c0.7-0.3,2.8-0.3,1.5-2.1c-0.9-1.2-1.9-0.7-2.9,0.2c-1.7,1.4-3.4,2.7-3.6,5.1c-1.4,2.2-2.8,4.3-4.3,6.5
		C66.6,140.2,66.6,143.2,65.2,145.4z M76.4,151.7c0.7,0.9,1.9,2.1,2.6,1.4c1-1-0.8-1.7-1.3-2.6c-0.2-3.1,0-6.1,3.7-7.2
		c0.3-0.1,0.5-0.3,0.7-0.5c-0.5-0.1-1-0.1-1.4-0.4c-2.5-1.5-3.6,0.4-4.7,2C74.4,146.9,73.3,149.5,76.4,151.7z M118.9,112
		c-3.2-3.4-5.5-5.6-7.5-7.9c-8-9.3-6.1-8.8-14.4-0.5c-0.7,0.7-1.1,1.6-2.4,3.6C104.1,102.8,109.7,111.7,118.9,112z M186.8,70.7
		c-1-3-1.9-6-2.9-9c-0.4-1.2-1.2-2.2-2.5-1c-2,1.8-3.9,3.6-5.7,5.6c-0.6,0.6-1.3,2.1,0.2,2.3c3.3,0.4,5.5,2.8,8.5,3.7
		C185.2,72.5,187.3,73.3,186.8,70.7z"/>
	<path class="st0" d="M243,95.1c82.4-1.1,149.8,68.1,149,150.1c-0.8,79.6-67.9,148.7-152.8,147c-77.6-1.6-143.5-68.1-144.3-147
		C94.1,162.3,162.1,94.5,243,95.1z M243.2,384.8c76.1,0.7,140.5-61.6,141.7-139.1c1.2-79.1-62.6-142-138-143.7
		C164.7,100.2,103,167,102,241C100.8,321,166,385.4,243.2,384.8z"/>
	<path class="st0" d="M83.3,346.1c-1.9-2.6-2.3-5.5-1.8-8.6c0.3-1.5,1-2.9,2.9-2.9c1.6,0,2.4,1,2.4,2.6c0,1.7,0.6,2.9,2.4,3.2
		c1.3,0.2,2.4,0,3.1-1c1.2-1.7-0.6-2.7-1.2-3.9c-2.2-4.2-5.8-8-2.5-13.6c3.4,3.6,5.1,8,7.6,12c5.1,8,10.4,15.8,17,22.7
		c0.8,0.8,1.8,1.7,2.1,2.7c1.7,4.5,3.6,6.2,7.4,1.6c1.7-2.1,2.1,0,2.2,1.3c0.1,0.8-0.3,1.6-0.6,2.4c-1.6,3.4,1.1,5,3.2,6.4
		c2.6,1.8,2.1-1.5,3.2-2.4c4.5-3.7,9.8-3.2,14.7-1.7c7.2,2.1,17.3,16.7,17.4,24.2c0,0.9,0.2,2-1,2.8c-2.4-4.1-4.6-8.4-7.3-12.4
		c-4.1-5.8-9.4-9.4-17-7.9c-1.1,0.2-2.4,0.2-2.9,1.6c-0.6,1.6,0.5,2.6,1.5,3.3c2.4,1.8,4.1,3.9,4.4,6.9c0.2,2.2,1.7,2.5,3.5,2.7
		c7.4,1,13.1,4.4,16.2,11.6c1.3,3,2.6,2.5,4-0.1c1.1-2.1,1.3-6,3.7-6c2.9,0,1.9,4,3.2,6c1.4,2.2,3.8,3.1,6.1,3.8
		c12.7,3.7,25,8.7,38.3,10.4c1,0.1,2,0.3,2.9,0.7c1.9,1,4.7,2.7,4.2,4.4c-0.5,2.1-3.4,0.7-5.2,0.5c-5.4-0.8-10.8-1.8-16.2-2.7
		c-2.1-1.2-4.4-1.7-6.8-1.8c-4.5-1.7-9-3.4-13.5-4.9c-1.6-0.5-3.5-0.8-3.3,2c0.6,7.2,1.5,14.2,6.8,19.8c4.2,4.5,11.9,6.4,16.9,4.2
		c4.8-2.1,5.7-7.4,1.8-10.2c-1.3-0.9-2.6-1.8-3,0.9c-0.6,3.5-2.7,5.1-6.3,4.9c-5-0.3-8.7-3.1-9.1-7c-0.4-4.1,2.1-6.8,7.6-8.2
		c0.6-0.2,1.2-0.4,1.8-0.7c2.3,0.6,4.7,1.2,7,1.8c4.2,3.3,8.5,6.4,9.8,12.1c1.5,7.1-1.7,12.6-8.7,14.3c-13.2,3.3-25-4.4-27.7-18.1
		c-0.9-4.4-1.2-8.9-1.1-13.4c0-2.4,0.6-5.3-2.9-6c-3.1-0.5-3.9,2.2-4.8,4.1c-3.1,6.6-6,13.3-9.2,19.9c-0.9,1.8-1.2,4.9-4,4.7
		c-2.5-0.2-4.1-5.7-2.7-8.6c1.8-3.7,3.9-7.3,5.8-11c1.2-2.2,2.4-4.8,0.6-7c-1.6-1.9-4-0.7-6.1-0.4c-3,0.3-6,0.7-8.9,1.2
		c-3.6,0.7-5.6-1.7-6.5-4.2c-1-2.6,1.9-2.9,3.7-3.5c1.1-0.3,1.7-1.1,1.7-2.2c0-1.2-1-1.6-1.9-2c-1.2-0.5-2.6-0.8-3.7-1.5
		c-2.8-1.9-2.3-4.9,0.7-6.7c1-0.6,3.5-0.2,2.8-1.9c-0.7-1.6-2.8-2.7-4.4-3.9c-1.4-1.1-2.4-0.3-3.4,0.9c-1.1,1.4-2.3,2.8-3.5,4.2
		c-5,6-9.9,12-14.9,18.1c-1.7,2.1-2.5,1.9-3.5-0.7c-1.2-3.2-0.8-5.6,1.5-8.1c4.9-5.2,9.4-10.8,14.2-16.1c2-2.3,3.1-3.8,0.1-6.4
		c-2.8-2.4-4.7-3.5-7.7-0.2c-6,6.6-12.4,13-18.7,19.4c-0.8,0.9-1.5,2.7-3,2c-1.3-0.6-0.9-2.4-1.1-3.6c-0.5-2.3,0.3-4.1,2-5.8
		c4.8-4.6,9.5-9.3,14.2-13.9c2.1-2,3.9-4.1,3-7.4c-1.2-4.3-3-4.4-7.1-3c-4.7,1.6-7.4,4.2-9.7,8.6c-2.2,4.2-6.8,3.3-10.8,2
		c-5.1-1.6-5.1-1.6-4.1,3.8c0.7,4.1,1.5,8.2,2.2,12.3c0.2,1.1,0.5,2.4,0.3,3.5c-0.3,1.4-0.7,3.4-2.3,3.5c-1.8,0.1-1.5-2-1.7-3.1
		c-2.3-12-6.1-23.5-10.8-34.7c-2.4-5.8,3-8.5,4-13.3c2.3,1.9,1,4.5,2.8,5.8c0.6,3.8,2.5,7,5.2,9.8c1.9,2.9,4.6,4.7,8,5.2
		c1.9,0.3,3.7-0.7,3.7-2.9c0-1.9-1.5-2.4-3.2-1.9c-2.8,0.7-5.1-1-7.5-1.7c-2.3-2.3-4.2-4.9-4.3-8.4c1-2.5,3.2-3,5.4-3.6
		c2.3,0.8,4.7,1.4,6.6,3.1c0.6,0.5,1.2,1.8,2.3,0.9c0.4-0.3,0.4-1.2,0.5-1.8c0.2-1.5-1-1.3-1.9-1.4C87.8,348,85.4,347.5,83.3,346.1z
		 M148.5,396.1c-1.2-1-2.5-1.5-3.8-1.2c-0.5,4.8,1.7,6.9,6.4,6.4c0.8-0.1,1.6,0.1,2-0.9c0.6-1.4-0.2-2.1-1.3-2.7
		C151.1,396.7,150,395.9,148.5,396.1z M98.9,348.1c-1.5,3.3-1.5,5.9,0.7,8.3c1,1.1,2.2,2.3,3.8,1c1.4-1.2,1.2-2.7,0.1-4
		C102.1,351.7,100.7,350.2,98.9,348.1z"/>
	<path class="st0" d="M432.2,164.8c-1.6-5.5-5.1-10.1-7.5-15.1c-1.4-2.8-3.2-1.6-4.9-0.6c-8.5,4.9-17,9.8-25.5,14.7
		c-1,0.6-2.2,1.8-3.1,1.2c-1.3-1,0-2.4,0.3-3.6c0.5-2.9,3-3.8,5.1-5.1c3-1.8,5.9-3.7,8.8-5.6c1.6-1,2.2-2.5,1.9-4.3
		c-0.3-2-1.7-2.9-3.5-3.1c-3-0.3-6-0.6-8.9-0.7c-3.3-0.1-5.4-1.8-6.2-4.8c-0.9-3.6,0.3-7,2.4-9.8c0.8-1.1,2.5-0.7,3.7-0.1
		c1,0.4,0.9,1.3,0.6,2.1c-0.5,1.5-2.2,3.4,0.1,4.2c2.6,0.9,5.6,1.6,8.2-0.2c1.7-1.1,3.2-3.4,2.1-5.2c-2.4-4.1-3.6-8.5-4.9-13.1
		c-0.9-3.4-3.4-1.8-5.4-0.1c-7.2,6.4-14.5,12.7-21.7,19.1c-0.8,0.7-1.5,2.2-2.8,1.5c-1.2-0.6-0.4-2.1-0.4-3.2c0-0.2,0-0.4,0-0.5
		c3.7-8.2,2.7-15.4-2-23.3c-3.4-5.7,0.3-9,6.9-8c4.8,0.8,8.9,3.4,13.6,4.5c0.6,0.1,1.5,0.1,1.8-0.2c0.8-0.9-0.3-1.5-0.8-2
		c-4.4-4.2-8.8-8.5-13.2-12.6c-4-3.7-5.1-3.1-8.7,1.5c-6.4,8.3-13.2,16.2-20,24.5c-2.3-4.4-1.5-7.6,1.2-10.9
		c5.1-6.4,9.8-13,14.9-19.4c2.5-3.1,1.1-4.7-1.4-6.4c-2.3-1.5-4.3-3.8-6.9,0.2c-4.7,7.4-9.8,14.6-14.9,21.8c-1.1,1.5-1.8,5-4.3,3.3
		c-1.9-1.4-1.6-4.6-0.1-6.9c2.5-3.7,5.1-7.4,7.6-11.1c1.1-1.7,2.1-3.3,2.2-5.4c0.1-2.7-0.8-3.8-3.5-3.1c-3.5,0.9-7.1,1.8-10.6,2.7
		c-2.3,0.6-4.2,0.3-5.8-1.6c-1.7-2-2.7-3.4,0.7-4.6c1.5-0.5,3.4-1.1,3.2-3.3c-0.3-2.3-2.5-1.9-3.9-2.3c-1.9-0.5-3.4-1.3-3.8-3.5
		c-0.4-2.2,1-3.4,2.5-4.5c7.8-5.7,21.3-1.6,24.9,7.4c0.7,1.6,1.1,3.4,1.8,5.4c2.6-2.2,3.6-5,5-7.6c1.5-2.8-1.4-3.8-2.6-5.3
		c-4.5-5.4-4.2-10.3,1-12.9c1.2-0.6,2.4-1.4,3.5,0.2c0.9,1.4,0.6,2.5-0.8,3.3c-3.4,2.1-1.7,3.5,0.4,5.4c2,1.8,4.3,2.9,6.6,4.1
		c3.9,2,7.4,4.4,10.3,7.6c3.1,3.3,4.6,7,2.5,11.3c-1,2.2-0.8,3.2,1.2,4.9c21.4,18.7,39.5,40,52.7,65.4c5.8,11.1,10.7,22.5,14.8,34.3
		c0.3,0.9,0.8,1.9,1,2.8c0.6,4,0,9.4,7,5.8c0.6-0.3,1.4,0.1,1.4,1c0,1.2-0.4,2.5-1.5,3c-3.5,1.4-4.1,3.4-2.3,6.8
		c1.3,2.4-1,4.3-1.8,6.4c-0.2,0.6-0.5,1.5-1.3,1.2c-0.5-0.2-0.7-1-1.1-1.5c-1.4-2.2,0.4-6.1-2.6-7c-3.1-1-6.5,0.8-9.7,1.6
		c-7.9,2-15.8,4.1-23.7,6.1c-0.9,0.2-2.3,0.5-2.8,0.1c-1.2-1.2,0.6-1.9,0.9-2.9c0.9-2.9,3.6-3.2,6-3.9c6.9-2,13.8-3.9,20.6-5.8
		c5.6-1.6,6.9-3.6,5.4-9.3c-1.8-6.7-4.9-12.8-7.6-19.1C434.5,168.6,433.4,166.7,432.2,164.8z M377.1,112.8c0.2,2.1,0.5,5.2,0.8,8.2
		c0.2,1.8,1.3,1.2,2,0.6c2.2-1.9,4.4-4,6.6-6c1.1-1,1.1-2.2-0.3-2.8c-2.4-1.1-4.9-2-7.4-2.8C377.5,109.6,376.6,110.1,377.1,112.8z
		 M419.6,140.8c-2.3-3.2-4.6-6.4-6.9-9.6c-0.2-0.3-1-0.6-1,0.1c0,2.1-4,4-0.5,6.3c1.7,1.1,1.3,2.8,1.7,4.4c0.3,1.1-1.4,3.7,1.4,3
		C416.1,144.5,418.4,143.4,419.6,140.8z M338.6,73c1.6-0.9,5.3-0.3,5.1-2.5c-0.3-3-3.8-3.7-6.6-4.3c-1.2-0.3-2.7,0.1-2,1.7
		C335.8,69.8,334.7,73,338.6,73z M371.8,77.2c-1.1-3.7-4.3-5.2-7.3-6.9c-0.7-0.4-1.5-1.7-2.6-0.6c-1,1-0.6,2.3,0.3,3.1
		c2.5,1.9,5,3.7,7.6,5.4C370.6,78.6,371.9,79,371.8,77.2z"/>
	<path class="st0" d="M364.5,405.7c-1,6.1-3.4,11.4-8,15.5c-2.5,2.3-4.3,2.2-5.2-1.5c-1.1-4.7-3.6-7.9-9.1-7
		c-3.3,0.5-5.3,4.8-3.6,7.7c0.6,1.1,1.1,0.5,1.9,0.4c2.1-0.2,4.5-1.4,6.2,1.2c1.3,2,0.6,3.8-0.6,4.9c-2.1,1.9-4.6,3.5-7.7,2.8
		c-4.6-1-7-4.3-7-9.4c-0.1-10.8,11-17.7,20.7-12.8c1.4,0.7,2.7,2.4,4.2,1.6c1.1-0.6,1-2.4,0.5-3.7c-0.8-1.9-2.6-2.9-4.4-2.5
		c-5,1-10,2.4-15,3.4c-4.7,1-9.6,1.8-14.2-0.4c-2.4-1.1-4-3-3.9-5.8c0.1-2.1,1.3-3.5,3.1-4.2c2.2-0.9,4.7-0.8,5.7,1.5
		c1.3,3.2,3.4,2.4,5.7,1.8c4.3-1.2,8.6-2.7,13-3.6c5.9-1.2,11.6-0.8,15.9,4.4C364,401.8,364.6,403.6,364.5,405.7z"/>
	<path class="st0" d="M440.2,339.8c-10.1,6.5-19.9,11.9-28.3,19.2c-0.5,0.4-1.2,0.7-1.5,1.2c-4,6.1-9.2,4.3-14.4,2.3
		c-1-0.4-2.6-0.4-2.6-1.8c0-1.1,1.5-1.1,2.3-1.6c4.2-2.4,8.4-4.9,11.3-8.9c1.1-1.4,1.8-3.2,2.5-4.8c0.6-1.5,1.3-3.3-0.2-4.6
		c-1.5-1.3-3.3-0.5-4.7,0.2c-3.7,1.8-7,4.1-10.1,6.9c-2.7,2.5-6.1,3.1-8.9,0.1c-2.3-2.4-1.4-6.2,0.8-7c7-2.3,12.7-8.1,20.6-7.8
		c6.2,0.2,9.3,4,8.9,10.7c-0.2,3.6,0.5,4.2,3.6,2.3c3.2-2,6.7-3.7,9.8-5.9C432.5,338,435.7,337.8,440.2,339.8z"/>
	<path class="st0" d="M433.5,170.6c-0.1,1,0.1,2.1-0.3,3c-1.9,3.8-2.7,6.9,3,7.9c1.8,0.3,1.2,2.5,0.7,3.9
		c-2.6,8.3-10.9,12.6-19.5,10.2c-8.1-2.3-12.8-10.3-10.8-18.7c2.3-9.7,9.1-16.4,15.6-23.3c0.5-0.5,1.3-1.5,2.1-0.6
		c1,1,1.2,2.5,0.4,3.7c-1.3,1.9-2.9,3.6-4.2,5.5c-4.4,6.5-9,13.1-5.5,21.6c1.9,4.8,7.6,7.5,11.7,5.9c2.2-0.9,2.9-1.9,0.4-3.2
		c-3-1.5-4.7-4.2-6.3-6.9c-2.3-3.9-2.4-8,0.3-11.7c2.9-3.9,6.5-2.9,10.2-1.3C432.1,168,432.8,169.3,433.5,170.6z"/>
	<path class="st0" d="M304.6,446.5c-1.9-0.2-4.9-0.3-6-3.2c-1.2-2.8,0.6-5,2.5-7.1c3-3.3,6.8-4.5,11.1-4.7c1.5-0.1,3.6,0.8,4.1-1.6
		c0.4-2.3-0.9-3.7-2.9-4.6c-4-1.8-8.2-2.8-12.4-3.8c-3.2-0.7-6-2.1-8.3-4.3c-2.5-2.4-3.4-5.1-0.7-7.8c2.4-2.4,5.3-3.1,7.6,0.1
		c2.7,3.8,6.8,4.8,10.8,6.3c0.5,0.2,0.9,0.3,1.4,0.5c5.7,2.6,11.9,5.1,12.2,12.4c0.4,7.6-5,12.1-11.1,15.6
		C310.6,445.6,308.1,446.6,304.6,446.5z"/>
	<path class="st0" d="M360.4,377.7c0.5-5.3,2.5-10.5,8.8-12.9c6.2-2.4,12.2-2.9,17.5,2.6c2.5,2.6,5.4,4.9,8.2,7.3
		c1.1,0.9,2.2,2.2,4,1.5c2.6-1.1,5-1.3,6.3,1.7c1.1,2.5-0.6,4.4-2.2,6.1c-2.1,2.3-4.6,2.9-7.2,1.4c-2-1.1-3.9-2.7-5.3-4.4
		c-3-3.7-5.4-3.7-8.5,0.1c-3,3.7-6.5,7.1-12,7.2C363.1,388.4,360.2,385.6,360.4,377.7z M367.6,377.4c0.1,1.7,0.5,4.2,2,4.2
		c4.2,0,5.9-4.2,8.6-6.6c0.7-0.6,1.9-2,0.5-3.4c-0.2-0.2-0.7-0.1-0.9-0.3c-2-2-4.6-2.4-6.9-1.2C368.2,371.5,368,374.6,367.6,377.4z"
		/>
	<path class="st0" d="M297.2,74.2c0.1-12.7,9.2-23.2,20.4-23.6c1.5,0,3.1,0,4.4,0.5c2.6,1.1,3.9,3.9,3.7,6c-0.2,2.5-3,0.7-4.5,0.6
		c-9.7-0.5-18.7,7.5-18.9,17.2c-0.1,2.5,0,5,3.8,3.4c2.6-1.1,5.4-1.3,7.1,1.4c1.6,2.5,1.1,5.1-0.8,7.4c-2.1,2.5-4.8,2.9-7.6,1.9
		C299.6,87.2,297.1,82.3,297.2,74.2z"/>
	<path class="st0" d="M254.7,454.7c-2,0.1-4-0.2-5.8-1c-6.9-3-7.6-9.4-1.6-13.9c3.6-2.7,7.6-3.3,11.7-2.2c3.6,1,6.3,3.2,6.9,7.1
		c0.5,3.9-2,6.5-5,8.5C259,454.4,256.9,454.8,254.7,454.7z M258.6,446c0-2.7-1.3-3.6-3.2-3.4c-2.8,0.3-4.5,1.8-4.5,4.8
		c0,1.8,1.2,2.7,2.9,2.5C256.5,449.6,258.5,448.4,258.6,446z"/>
	<path class="st0" d="M253.6,435.2c-5.9-0.1-10.5-4-10.4-8.5c0.2-4.6,5.9-9.1,11.4-9c5.1,0.1,9.4,3.9,9.3,8.4
		C263.9,431.1,259.1,435.3,253.6,435.2z M257.5,425.8c-0.2-1.8-1.1-2.7-2.6-2.4c-2.4,0.5-4.3,1.7-4.5,4.5c-0.1,1.6,0.9,2,2.2,1.8
		C255,429.1,257.1,428.3,257.5,425.8z"/>
	<path class="st0" d="M176.6,82c-0.4-3.2,1.3-4.5,4.1-4.4c3.1,0.1,4.4,2.3,4.6,4.9c0.2,2.7-1.6,4.4-4.4,4.2
		C178.1,86.4,176,85.2,176.6,82z"/>
	<path class="st0" d="M362.2,121.5c0.1-3,1.6-4.6,4.6-4.6s4.7,1.8,4.6,4.7c-0.1,2.8-2.1,4.4-5,4.4
		C363.6,125.9,362.1,124.4,362.2,121.5z"/>
	<path class="st2" d="M83.3,346.1c2.1,1.3,4.5,1.9,6.9,2.2c0.9,0.1,2.1-0.1,1.9,1.4c-0.1,0.6-0.1,1.5-0.5,1.8
		c-1.1,0.8-1.7-0.4-2.3-0.9c-1.9-1.7-4.3-2.2-6.6-3.1C82.4,346.9,82.6,346.4,83.3,346.1z"/>
	<path class="st2" d="M77.3,351.2c0.1,3.5,2,6,4.3,8.4c-0.3,0.5-0.6,0.9-0.9,1.4c-2.7-2.8-4.5-5.9-5.2-9.8
		C76.2,350.5,76.7,350.7,77.3,351.2z"/>
	<path class="st2" d="M65.2,145.4c1.4-2.2,1.3-5.2,4-6.6c0.3,0.4,0.6,0.8,0.9,1.1c-1.2,1.8-2.5,3.7-3.7,5.5
		C66,145.4,65.6,145.4,65.2,145.4z"/>
	<path class="st2" d="M43.6,200.6c0.1,0.4,0.1,0.7,0.2,1.1c-0.7,0.6-1,1.8-2.3,1.1c0.5-2.2,1-4.3,1.5-6.5
		C44,197.7,43.1,199.2,43.6,200.6z"/>
	<path class="st2" d="M433.5,170.6c-0.7-1.3-1.4-2.6-2.2-3.9c-0.1-0.8-0.1-1.6,0.8-1.9c1.2,1.9,2.3,3.8,2.4,6.1
		C434.3,170.8,433.9,170.7,433.5,170.6z"/>
	<path class="st2" d="M201.1,417.5c-2.3-0.6-4.7-1.2-7-1.8c0.2-0.2,0.2-0.5,0.2-0.7c2.4,0.2,4.7,0.6,6.8,1.8
		C201.1,417,201.1,417.2,201.1,417.5z"/>
	<path class="st1" d="M118.9,112c-9.2-0.3-14.8-9.2-24.3-4.7c1.3-2,1.7-3,2.4-3.6c8.3-8.3,6.4-8.8,14.4,0.5
		C113.4,106.5,115.6,108.6,118.9,112z"/>
	<path class="st1" d="M186.8,70.7c0.5,2.6-1.6,1.8-2.4,1.6c-2.9-0.9-5.2-3.3-8.5-3.7c-1.6-0.2-0.8-1.7-0.2-2.3
		c1.8-1.9,3.7-3.8,5.7-5.6c1.3-1.2,2.1-0.3,2.5,1C184.9,64.7,185.8,67.7,186.8,70.7z"/>
	<path class="st1" d="M43.6,200.6c-0.5-1.4,0.4-3-0.6-4.3c1.2-3.6,1.3-7.6,3.7-10.8c1-0.3,0.9-1.1,0.9-1.9l-0.1,0.1h0.4l0.4-0.1
		c1.1,3.8,1,7.1-2.6,9.9C43.6,195.2,44,198.2,43.6,200.6z"/>
	<path class="st1" d="M76.4,151.7c-3.1-2.3-2-4.9-0.3-7.3c1.1-1.5,2.2-3.5,4.7-2c0.4,0.2,0.9,0.3,1.4,0.4c-0.2,0.2-0.5,0.4-0.7,0.5
		c-3.7,1.1-3.9,4-3.7,7.2C77.3,150.9,76.9,151.3,76.4,151.7z"/>
	<path class="st2" d="M73.5,132.3c0.2-2.4,1.9-3.6,3.6-5.1c1.1-0.9,2-1.4,2.9-0.2c1.4,1.8-0.7,1.8-1.5,2.1c-1.9,0.7-2.9,2-3.7,3.8
		C74.4,132.7,73.9,132.5,73.5,132.3z"/>
	<path class="st1" d="M73.5,132.3c0.5,0.2,0.9,0.4,1.4,0.6c0,0.7-0.1,1.5-0.1,2.2c-0.1,0.8-0.2,1.6-0.2,2.4
		c-1.5,0.8-2.9,1.6-4.4,2.4c-0.3-0.4-0.6-0.8-0.9-1.1C70.7,136.6,72.1,134.5,73.5,132.3z"/>
	<path class="st2" d="M48.2,183.7l-0.4,0.1h-0.4c0.2-1,0.1-2,0.5-2.9c0.6-1.2,0.3-3.3,2.5-3c0.5,0.1,1.2,0.2,1.3,0.5
		c0.7,1.8-1.6,1.7-2,2.8C49.4,182.1,48.7,182.9,48.2,183.7z"/>
	<path class="st2" d="M76.4,151.7c0.5-0.4,0.9-0.8,1.4-1.2c0.5,0.9,2.3,1.5,1.3,2.6C78.3,153.8,77.1,152.7,76.4,151.7z"/>
	<path class="st2" d="M74.5,137.6c0.1-0.8,0.2-1.6,0.2-2.4C75.1,136,75.8,136.9,74.5,137.6z"/>
	<path class="st2" d="M47.5,183.7c0,0.8,0.1,1.6-0.9,1.9C46.7,184.8,46.6,184,47.5,183.7z"/>
	<path class="st2" d="M243.2,384.8C166,385.3,100.8,321,101.9,241c1.1-74,62.7-140.8,144.9-139c75.4,1.7,139.2,64.6,138,143.7
		C383.7,323.3,319.3,385.6,243.2,384.8z M122,250.9c8.4-0.1,8.2-0.1,8.6,5.6c0.2,2.5-0.8,3.2-2.9,3.6c-3.1,0.6-6.1,1.6-9.2,2.2
		c-2.6,0.5-3.6,1.2-3,4.3c2.4,12,2.3,12,14.1,9.3c0.3-0.1,0.7-0.1,1-0.3c2.6-1,3.7,0,4.6,2.6c1.4,3.8-1.3,4.1-3.6,5
		c-11.7,5-11.6,5-6.2,16.4c1.1,2.3,2.1,2.7,4.1,1.7c2.7-1.3,5.5-2.4,8.2-3.6c2.2-0.9,4.2-2.5,6.2,0.9s-0.7,4-2.3,5.4
		c-2.4,2-4.9,3.9-7.5,5.7c-2.2,1.5-1.8,3-0.2,4.4c3.2,2.7,3.3,8.6,8.8,8.7c1.1,0,2.2-1.4,3.2-2.2c2-1.5,4-3,5.9-4.7
		c1.6-1.5,2.6-1.1,4.1,0.4c2.3,2.3,3.4,4.3,0.3,6.9c-2,1.7-3.5,4-5.5,5.8c-2.1,1.9-2.1,3.3,0.2,5.1c3,2.3,5.6,6.5,8.7,7
		c3.2,0.5,5.2-4.5,7.7-7.1c2.3-2.4,3.8-2.6,6.5-0.5c3,2.3,1.3,3.8,0.1,5.7c-1.6,2.5-3.1,5.2-4.9,7.5c-1.6,2-1.1,2.8,0.8,4.2
		c10.3,7.3,10.3,7.4,17.1-3.2c0.2-0.3,0.4-0.5,0.6-0.8c2-4.1,4.6-1.5,7.1-0.6c2.9,1,2.8,2.6,1.8,5c-1.3,2.9-2.2,5.9-3.4,8.8
		c-0.8,1.9-0.2,2.9,1.6,3.9c11,5.7,11.6,5.5,15.9-5.9c0.1-0.3,0.3-0.6,0.3-0.9c0.7-3.7,2.7-4.2,6.1-3.2c3.6,1.1,2.3,3.2,1.7,5.5
		c-2.7,11.3-2.7,11.3,8.5,13.3c0.5,0.1,1,0.1,1.5,0.2c2.8,0.8,4.3,0.1,4.6-3.2c0.2-3.5,1.1-6.9,1.6-10.4c0.2-1.5,0.6-2.3,2.4-2.5
		c8.7-1.1,9.8-0.3,10.1,8.3c0,1,0.1,2,0.1,3c-0.2,3.5,1.1,5,4.9,4.6c13-1.4,11.1,1.8,10.2-12c-0.2-2.9-0.9-5.3,3.4-6.2
		c4.3-0.9,5.7,0.6,6.4,4.3c0.3,1.5,1,2.9,1.2,4.3c0.6,4.2,2.6,4.7,6.5,3.4c10-3.2,10.3-3.1,7-12.9c-1.4-4.1,0.1-5.4,3.5-6.9
		c4.2-2,4.3,1.4,5.5,3.4c0.8,1.3,1.7,2.5,2.1,3.9c1.3,4.2,3.6,3.6,6.7,1.8c9.3-5.3,9.6-5.4,4.2-14.4c-2.2-3.6-0.6-4.7,1.8-6.7
		c2.8-2.3,4.3-1.3,5.9,1.1c0.8,1.2,2.2,2.1,2.9,3.4c2.6,4.5,5,3.6,8.4,0.5c7-6.4,7.1-6.3,1.2-13.6c-0.5-0.6-1-1.3-1.6-1.9
		c-1.7-1.6-1.2-2.7,0-4.6c2.7-4.2,5.2-4.2,8.5-0.9c1.4,1.4,3.2,2.4,4.7,3.7c1.8,1.5,2.9,1.2,4.5-0.7c7.6-9.6,7.7-9.5-1.5-16.8
		c-0.3-0.2-0.5-0.5-0.8-0.6c-2-1.1-1.9-2.3-1-4.5c2.1-5,4.6-2.4,7.3-0.9c7.5,4.2,7.5,4.2,11.4-3.2c3.5-6.6,3.5-6.6-2.8-10
		c-1.6-0.9-3.2-1.9-4.8-2.6c-4.2-1.8-1.1-4.4-0.9-6.6c0.3-3,2.1-2.5,4.2-2c12.1,2.5,12,2.4,14.5-9.4c0.6-3-0.3-3.8-3-4.2
		c-2.8-0.4-5.5-1.5-8.3-1.8c-3.2-0.4-3.4-2.1-3.2-4.8c0.2-3.2,1.5-4,4.4-3.7c1.6,0.2,3.4-0.2,5,0c4.3,0.6,5.8-0.8,5.7-5.4
		c-0.3-10.1-0.1-10.1-10.2-10.2c-2.6,0-4.7,0.2-5-3.7c-0.3-3.7,1.6-4.2,4.3-4.5c1.8-0.3,3.6-0.9,5.4-0.9c4.2-0.1,4.9-2.1,4.1-5.8
		c-2.3-10.5-2.2-10.6-12.8-8.6c-2.7,0.5-4.6,0.8-5.6-2.7c-0.9-3.2-1-5.3,2.5-6.5c1.6-0.5,3-1.4,4.4-2.2c5.8-3.5,6.3-1.6,2.5-8.7
		c-4.4-8.2-4.4-8.2-12.8-3.7c-2,1.1-3.9,3.3-6.1-0.4c-1.8-3.1-1.8-5,1.4-6.8c1.8-1.1,3.3-2.8,5.1-3.9c2.8-1.9,3-3.4,0.8-6.3
		c-7.1-8.9-7-9.1-15.8-2c-1.9,1.6-3.1,2.4-5.1-0.1c-1.8-2.3-3-3.9-0.2-6.1c1.4-1.1,2.5-2.8,3.9-3.9c3.5-2.7,2.7-4.7-0.4-7.3
		c-7.7-6.7-7.7-7-14.7,0.3c-2.4,2.5-3.9,2.9-6.8,0.6c-3-2.3-2.6-4-0.6-6.4c0.7-0.9,1.1-2.1,1.8-3c3.6-3.9,2.2-6-2-8.4
		c-8.2-4.7-8.2-5-13.2,3.4c-1.9,3.1-3.4,3.9-7.1,2.3c-3.9-1.7-2.7-3.8-1.7-6.3c0.4-1.1,0.7-2.2,1.2-3.3c2.2-4.3,1.5-6.5-3.8-7.9
		c-9.3-2.4-9.6-2.9-12.1,6.1c-1.4,4.9-3.8,5.1-7.5,3.7c-4.4-1.6-1.8-5.1-1.7-7.6c0.2-7.6,0.4-7.6-7.1-8.3c-0.2,0-0.3,0-0.5,0
		c-7.5-0.6-7.5-0.6-8.1,6.9c-0.5,7-0.5,6.7-7.2,7.1c-3.9,0.2-5.9-0.7-5.7-4.9c0.1-1.6-0.6-3.3-0.5-4.9c0.2-3.6-1.3-4.5-4.8-4.2
		c-10.9,1.1-11.1,0.9-10.1,11.9c0.3,3.3-0.7,4.6-3.9,5.4c-3.5,0.9-3.9-1.2-4.6-3.4c-0.8-2.4-1.6-4.7-2.4-7.1c-0.4-1.1-0.6-2.7-2-2.4
		c-4.4,1-9.1,1.6-12.5,4.4c-2.6,2.2,1,5.3,1.2,8.1c0.1,1.4,0.9,2.8,1.5,4.2c0.8,1.6,0,2.4-1.3,3.2c-4.7,3-5.5,2.8-8.2-2.1
		c-0.9-1.6-1.8-3.2-2.6-4.8c-1-2.5-2.2-3.1-4.9-1.8c-10.8,5.4-10.9,5.3-5.3,16c0.1,0.1,0.1,0.3,0.2,0.4c1.8,2.4,1.1,4-1.1,5.8
		c-2.4,1.9-3.8,0.9-5.4-0.8c-1.6-1.7-3.4-3.3-4.8-5.1c-2.1-2.7-3.6-3-6.2-0.3c-7.8,7.9-8.2,7.9-0.6,15.7c2.8,2.9,1.8,4.5-0.2,6.9
		c-2.4,3.1-3.9,0.8-5.6-0.6c-1.8-1.5-3.6-3-5.3-4.5c-1.5-1.3-2.5-1.4-4.1,0.2c-8.7,8.6-8.7,9.5,0.6,17.3c0.1,0.1,0.2,0.2,0.4,0.3
		c2.8,1.6,2.6,3.5,1.1,6.2c-1.7,3.2-3.5,2.1-5.7,1c-2.6-1.2-5.1-2.5-7.8-3.4c-7.1-2.5-5.1,4.6-7.1,7.3c-1.5,1.8-4.6,5.5,1.1,7.2
		c3.2,1,6,2.8,9.1,4c2.4,0.9,2.2,2.4,1.6,4.3c-0.6,2.2-1.9,2.4-3.8,1.9c-2.9-0.7-5.9-1.2-8.7-2.1c-2.7-0.9-3.8-0.3-4.6,2.5
		c-3.4,11.9-3.5,11.9,8.3,14.7c2.8,0.7,4.7,1,4.5,4.9c-0.3,4.1-2.5,4-5.3,4.1c-2.5,0-5,0.2-7.5,0c-2.9-0.2-4.5,0.5-3.9,3.9
		c0.3,1.3,0.1,2.7,0.1,4C114.1,251,114.1,251,122,250.9z"/>
	<path class="st1" d="M194.3,414.9c0,0.3,0,0.5-0.2,0.7c-0.6,0.2-1.2,0.5-1.8,0.7c-5.5,1.4-8,4.1-7.6,8.2c0.4,3.8,4.1,6.6,9.1,7
		c3.6,0.2,5.8-1.4,6.3-4.9c0.4-2.7,1.7-1.8,3-0.9c3.9,2.9,3,8.1-1.8,10.2c-5.1,2.2-12.7,0.3-16.9-4.2c-5.2-5.6-6.2-12.6-6.8-19.8
		c-0.2-2.8,1.7-2.5,3.3-2C185.3,411.5,189.8,413.3,194.3,414.9z"/>
	<path class="st1" d="M80.7,361c0.3-0.5,0.6-0.9,0.9-1.4c2.5,0.7,4.7,2.4,7.5,1.7c1.7-0.4,3.2,0,3.2,1.9c0,2.3-1.8,3.2-3.7,2.9
		C85.3,365.7,82.6,363.9,80.7,361z"/>
	<path class="st1" d="M98.9,348.1c1.9,2.1,3.3,3.7,4.6,5.3c1.1,1.3,1.2,2.8-0.1,4c-1.6,1.3-2.8,0.1-3.8-1
		C97.4,354,97.4,351.4,98.9,348.1z"/>
	<path class="st2" d="M151.9,397.8c1.1,0.6,1.9,1.2,1.3,2.7c-0.4,1-1.2,0.8-2,0.9c-4.7,0.5-6.9-1.5-6.4-6.4c1.3-0.4,2.6,0.1,3.8,1.2
		c-1.2,0.1-2.3,0.3-2.3,1.8c0,0.9,0.6,1.4,1.4,1.7C149.7,400.5,150.9,399.4,151.9,397.8z"/>
	<path class="st1" d="M151.9,397.8c-1,1.6-2.2,2.7-4.3,1.9c-0.8-0.3-1.4-0.9-1.4-1.7c0-1.5,1.2-1.7,2.3-1.8
		C150,395.9,151.1,396.7,151.9,397.8z"/>
	<path class="st1" d="M377.1,112.8c-0.6-2.7,0.4-3.2,1.7-2.7c2.5,0.8,5,1.7,7.4,2.8c1.4,0.6,1.3,1.8,0.3,2.8c-2.2,2-4.3,4.1-6.6,6
		c-0.7,0.6-1.8,1.2-2-0.6C377.6,117.9,377.3,114.8,377.1,112.8z"/>
	<path class="st1" d="M419.6,140.8c-1.1,2.6-3.4,3.7-5.4,4.2c-2.8,0.7-1.1-1.9-1.4-3c-0.4-1.6,0-3.3-1.7-4.4
		c-3.5-2.3,0.5-4.2,0.5-6.3c0-0.8,0.8-0.5,1-0.1C415,134.4,417.3,137.6,419.6,140.8z"/>
	<path class="st1" d="M338.6,73c-3.9,0-2.9-3.2-3.6-5c-0.6-1.6,0.8-2,2-1.7c2.8,0.6,6.3,1.3,6.6,4.3C343.9,72.7,340.3,72.1,338.6,73
		z"/>
	<path class="st1" d="M371.8,77.2c0.1,1.8-1.2,1.4-1.9,0.9c-2.6-1.7-5.2-3.5-7.6-5.4c-0.9-0.7-1.3-2-0.3-3.1c1-1,1.8,0.2,2.6,0.6
		C367.4,72.1,370.7,73.5,371.8,77.2z"/>
	<path class="st1" d="M367.6,377.4c0.4-2.8,0.6-5.9,3.3-7.3c2.3-1.2,4.8-0.8,6.9,1.2c0.2,0.2,0.7,0.1,0.9,0.3
		c1.4,1.3,0.2,2.7-0.5,3.4c-2.7,2.5-4.4,6.6-8.6,6.6C368.1,381.6,367.7,379.1,367.6,377.4z"/>
	<path class="st1" d="M258.6,446c-0.1,2.4-2.1,3.6-4.8,3.9c-1.7,0.2-2.9-0.7-2.9-2.5c0-3,1.8-4.5,4.5-4.8
		C257.3,442.4,258.6,443.3,258.6,446z"/>
	<path class="st1" d="M257.5,425.8c-0.4,2.6-2.5,3.4-4.9,3.8c-1.3,0.3-2.3-0.2-2.2-1.8c0.2-2.8,2.1-3.9,4.5-4.5
		C256.4,423,257.3,424,257.5,425.8z"/>
	<path class="st0" d="M122,250.9c-7.9,0.1-7.9,0.1-8-7.6c0-1.3,0.2-2.7-0.1-4c-0.7-3.3,0.9-4.1,3.9-3.9c2.5,0.2,5,0,7.5,0
		c2.8,0,5,0.1,5.3-4.1c0.3-3.9-1.6-4.2-4.5-4.9c-11.8-2.8-11.7-2.8-8.3-14.7c0.8-2.8,1.9-3.4,4.6-2.5c2.8,1,5.8,1.4,8.7,2.1
		c1.8,0.5,3.1,0.2,3.8-1.9c0.6-2,0.8-3.4-1.6-4.3c-3.1-1.2-6-3-9.1-4c-5.6-1.8-2.5-5.4-1.1-7.2c2.1-2.6,0.1-9.8,7.1-7.3
		c2.7,0.9,5.2,2.2,7.8,3.4c2.2,1,4,2.1,5.7-1c1.5-2.7,1.7-4.6-1.1-6.2c-0.1-0.1-0.3-0.2-0.4-0.3c-9.3-7.8-9.2-8.7-0.6-17.3
		c1.6-1.6,2.6-1.5,4.1-0.2c1.8,1.5,3.5,3,5.3,4.5c1.7,1.4,3.2,3.7,5.6,0.6c1.9-2.4,3-4,0.2-6.9c-7.5-7.7-7.2-7.8,0.6-15.7
		c2.7-2.7,4.1-2.4,6.2,0.3c1.4,1.8,3.2,3.4,4.8,5.1s3,2.7,5.4,0.8c2.2-1.8,2.9-3.4,1.1-5.8c-0.1-0.1-0.2-0.3-0.2-0.4
		c-5.6-10.6-5.5-10.5,5.3-16c2.7-1.4,3.9-0.7,4.9,1.8c0.7,1.7,1.7,3.2,2.6,4.8c2.7,4.9,3.4,5.1,8.2,2.1c1.3-0.8,2-1.6,1.3-3.2
		c-0.6-1.3-1.4-2.7-1.5-4.2c-0.3-2.8-3.8-5.9-1.2-8.1c3.4-2.8,8.2-3.5,12.5-4.4c1.4-0.3,1.7,1.3,2,2.4c0.8,2.4,1.6,4.7,2.4,7.1
		c0.7,2.2,1.1,4.3,4.6,3.4c3.3-0.8,4.2-2.1,3.9-5.4c-1-11-0.8-10.9,10.1-11.9c3.5-0.3,4.9,0.6,4.8,4.2c-0.1,1.6,0.6,3.3,0.5,4.9
		c-0.2,4.2,1.8,5.1,5.7,4.9c6.7-0.4,6.7-0.1,7.2-7.1c0.5-7.5,0.5-7.5,8.1-6.9c0.2,0,0.3,0,0.5,0c7.5,0.7,7.3,0.7,7.1,8.3
		c-0.1,2.5-2.7,6,1.7,7.6c3.8,1.4,6.2,1.2,7.5-3.7c2.5-8.9,2.8-8.4,12.1-6.1c5.2,1.3,6,3.5,3.8,7.9c-0.5,1-0.8,2.2-1.2,3.3
		c-0.9,2.5-2.2,4.6,1.7,6.3c3.6,1.6,5.2,0.8,7.1-2.3c5-8.4,5-8.1,13.2-3.4c4.2,2.4,5.6,4.5,2,8.4c-0.8,0.8-1.1,2.1-1.8,3
		c-2,2.4-2.4,4,0.6,6.4c3,2.3,4.4,1.9,6.8-0.6c7-7.3,7-7,14.7-0.3c3,2.6,3.9,4.6,0.4,7.3c-1.4,1.1-2.5,2.7-3.9,3.9
		c-2.8,2.2-1.6,3.9,0.2,6.1c2,2.6,3.2,1.7,5.1,0.1c8.8-7.1,8.7-6.9,15.8,2c2.3,2.8,2.1,4.4-0.8,6.3c-1.8,1.2-3.3,2.9-5.1,3.9
		c-3.2,1.9-3.2,3.7-1.4,6.8c2.2,3.7,4,1.5,6.1,0.4c8.5-4.5,8.5-4.5,12.8,3.7c3.8,7.1,3.3,5.2-2.5,8.7c-1.4,0.9-2.9,1.7-4.4,2.2
		c-3.5,1.2-3.5,3.3-2.5,6.5c1,3.6,2.9,3.2,5.6,2.7c10.6-1.9,10.5-1.9,12.8,8.6c0.8,3.7,0.1,5.7-4.1,5.8c-1.8,0-3.6,0.7-5.4,0.9
		c-2.7,0.4-4.5,0.9-4.3,4.5c0.3,3.8,2.4,3.6,5,3.7c10.1,0.1,9.9,0.2,10.2,10.2c0.1,4.6-1.4,6-5.7,5.4c-1.6-0.2-3.3,0.1-5,0
		c-2.9-0.3-4.2,0.5-4.4,3.7c-0.1,2.7,0,4.4,3.2,4.8c2.8,0.3,5.5,1.4,8.3,1.8c2.7,0.4,3.6,1.3,3,4.2c-2.5,11.8-2.4,11.8-14.5,9.4
		c-2.1-0.4-3.9-0.9-4.2,2c-0.2,2.3-3.4,4.9,0.9,6.6c1.7,0.7,3.2,1.7,4.8,2.6c6.3,3.5,6.3,3.5,2.8,10c-3.9,7.4-3.9,7.4-11.4,3.2
		c-2.6-1.5-5.2-4.1-7.3,0.9c-0.9,2.1-1,3.4,1,4.5c0.3,0.2,0.5,0.4,0.8,0.6c9.2,7.3,9.2,7.2,1.5,16.8c-1.5,1.9-2.7,2.2-4.5,0.7
		c-1.5-1.3-3.3-2.3-4.7-3.7c-3.3-3.3-5.9-3.3-8.5,0.9c-1.2,1.9-1.6,3.1,0,4.6c0.6,0.6,1.1,1.3,1.6,1.9c6,7.3,5.8,7.1-1.2,13.6
		c-3.4,3.1-5.8,4-8.4-0.5c-0.7-1.3-2.1-2.2-2.9-3.4c-1.7-2.4-3.1-3.4-5.9-1.1c-2.4,2-4,3.1-1.8,6.7c5.5,9,5.2,9.1-4.2,14.4
		c-3.2,1.8-5.4,2.4-6.7-1.8c-0.4-1.4-1.3-2.7-2.1-3.9c-1.3-2-1.4-5.3-5.5-3.4c-3.4,1.6-4.8,2.9-3.5,6.9c3.3,9.8,3,9.7-7,12.9
		c-3.9,1.2-5.9,0.8-6.5-3.4c-0.2-1.5-0.9-2.9-1.2-4.3c-0.7-3.6-2.1-5.2-6.4-4.3c-4.3,0.9-3.6,3.3-3.4,6.2c0.9,13.8,2.8,10.6-10.2,12
		c-3.9,0.4-5.1-1-4.9-4.6c0.1-1-0.1-2-0.1-3c-0.3-8.6-1.4-9.4-10.1-8.3c-1.8,0.2-2.2,1-2.4,2.5c-0.5,3.5-1.4,6.9-1.6,10.4
		c-0.2,3.3-1.8,3.9-4.6,3.2c-0.5-0.1-1-0.2-1.5-0.2c-11.1-2-11.2-2-8.5-13.3c0.5-2.3,1.9-4.3-1.7-5.5c-3.4-1.1-5.4-0.5-6.1,3.2
		c-0.1,0.3-0.2,0.6-0.3,0.9c-4.3,11.4-4.9,11.6-15.9,5.9c-1.9-1-2.4-2-1.6-3.9c1.2-2.9,2.1-6,3.4-8.8c1-2.4,1.1-4.1-1.8-5
		c-2.5-0.8-5.1-3.5-7.1,0.6c-0.1,0.3-0.4,0.5-0.6,0.8c-6.8,10.5-6.8,10.5-17.1,3.2c-2-1.4-2.5-2.2-0.8-4.2c1.9-2.3,3.3-5,4.9-7.5
		c1.2-1.9,2.9-3.5-0.1-5.7c-2.7-2-4.2-1.9-6.5,0.5c-2.5,2.6-4.4,7.6-7.7,7.1c-3.2-0.5-5.7-4.7-8.7-7c-2.3-1.8-2.3-3.2-0.2-5.1
		c2-1.8,3.5-4.1,5.5-5.8c3.1-2.6,2-4.6-0.3-6.9c-1.5-1.5-2.5-1.8-4.1-0.4c-1.8,1.7-3.9,3.1-5.9,4.7c-1,0.8-2.1,2.3-3.2,2.2
		c-5.5,0-5.6-6-8.8-8.7c-1.7-1.4-2-2.9,0.2-4.4c2.6-1.8,5.1-3.7,7.5-5.7c1.6-1.3,4.3-2,2.3-5.4s-4-1.9-6.2-0.9
		c-2.8,1.2-5.5,2.3-8.2,3.6c-2.1,1-3.1,0.6-4.1-1.7c-5.4-11.4-5.5-11.3,6.2-16.4c2.2-1,5-1.2,3.6-5c-0.9-2.6-2.1-3.5-4.6-2.6
		c-0.3,0.1-0.6,0.2-1,0.3c-11.8,2.7-11.7,2.7-14.1-9.3c-0.6-3,0.4-3.8,3-4.3c3.1-0.6,6.1-1.6,9.2-2.2c2.1-0.4,3.1-1.1,2.9-3.6
		C130.2,250.8,130.4,250.8,122,250.9z M242.9,350.1c56.7,1,106.1-46.5,107.1-103.2c1.1-59.7-45.6-109-103.8-110.1
		c-58.7-1.1-108.3,44.9-109.5,104.4C135.6,299.7,182.4,349.9,242.9,350.1z"/>
	<path class="st2" d="M242.9,350.1c-60.5-0.2-107.3-50.4-106.2-108.8c1.2-59.5,50.8-105.5,109.5-104.4
		C304.4,138,351.1,187.3,350,247C349,303.5,299.7,351.1,242.9,350.1z M164.2,224.1c0.1,0.4,0.2,0.8,0.4,1.2c3.1,0,6.2,0,9.3,0
		c4.5,0,9,0.2,13.5,0.2c2.2,0,3.3,0.8,3.6,3.1c3.4,21.4,11.4,41.3,19.9,61c2.2,5,2,5.4-3.3,5.3c-3.5-0.1-5,0.6-5,4.6
		c0,4.1,1.1,5.7,5.3,5.3c3.1-0.3,6.3,0.1,9.5-0.1c2.9-0.2,4.9,0.8,6.7,3.2c4.4,5.8,8.8,11.7,14,16.8c2.3,2.3,4.2,2.3,6.3-0.1
		c3.1-3.6,6.8-7,9.3-11c4.8-7.5,10.5-12.1,20-9.9c2.1,0.5,4.2,0.1,3.8-3c-0.3-2.5,1.7-6.3-2.8-6.7c-3.9-0.4-4.3-1.7-2.9-5.1
		c8.2-19.7,14.2-40.1,19-60.9c0.7-3.2,2.2-4.5,5.4-4.3c5,0.2,10.1,0.1,15.1,0.1c-1-1.7-2-2.4-3.1-3.1c-15.1-9-30-18.4-45.5-26.7
		c-8-4.3-11.6-9.1-10.7-18.5c1-10.8,0.2-11-10.9-10.9c-4.8,0.1-10.9-2.1-14,0.9c-3.4,3.2-1.3,9.5-1.3,14.4c0,4-1.5,6.3-4.8,8.3
		c-14.5,9-29,18.2-43.4,27.4C172.8,218.3,168.5,221.2,164.2,224.1z"/>
	<path class="st3" d="M164.2,224.1c4.3-2.9,8.6-5.8,13-8.6c14.4-9.2,28.9-18.4,43.4-27.4c3.3-2,4.8-4.3,4.8-8.3
		c0-4.9-2.1-11.2,1.3-14.4c3.2-3,9.2-0.8,14-0.9c11.2-0.1,11.9,0,10.9,10.9c-0.9,9.4,2.7,14.2,10.7,18.5
		c15.5,8.3,30.4,17.7,45.5,26.7c1.1,0.7,2.2,1.4,3.1,3.1c-5,0-10.1,0.1-15.1-0.1c-3.3-0.1-4.7,1.1-5.4,4.3
		c-4.8,20.8-10.8,41.2-19,60.9c-1.4,3.4-1,4.7,2.9,5.1c4.5,0.4,2.5,4.2,2.8,6.7c0.4,3.1-1.7,3.4-3.8,3c-9.5-2.2-15.2,2.4-20,9.9
		c-2.5,4-6.2,7.4-9.3,11c-2,2.4-4,2.3-6.3,0.1c-5.2-5.1-9.6-11-14-16.8c-1.8-2.4-3.8-3.4-6.7-3.2c-3.2,0.2-6.4-0.2-9.5,0.1
		c-4.2,0.4-5.3-1.2-5.3-5.3c0-4,1.5-4.7,5-4.6c5.4,0.1,5.5-0.3,3.3-5.3c-8.5-19.7-16.5-39.6-19.9-61c-0.4-2.3-1.5-3.1-3.6-3.1
		c-4.5,0-9-0.1-13.5-0.2c-3.1,0-6.2,0-9.3,0C164.4,224.9,164.3,224.5,164.2,224.1z M235.2,260.2c0.1,0,0.1,0,0.2,0
		c0-9.8-0.2-19.6,0.1-29.4c0.1-4.3-1.4-5.3-5.4-5.1c-8.1,0.3-16.3,0.1-24.4,0.1c-6.8,0-7,0-5.7,6.9c3.8,19.3,11.1,37.5,18.8,55.5
		c2.4,5.6,5.3,7.8,11.4,7.3c4.1-0.3,5-1.7,4.9-5.4C235.1,280.1,235.2,270.1,235.2,260.2z M248.2,258.8c0.1,0,0.3,0,0.4,0
		c0,10.3,0,20.6,0,31c0,1.6-0.5,3.5,1.4,4.5c3.7,1.9,11.5-0.6,13.3-4.3c9.7-19.7,14.8-40.9,20.8-61.8c0.7-2.6,0-3.6-2.8-3.6
		c-9.7,0.1-19.3,0.2-29,0c-3.3-0.1-4.3,1.1-4.2,4.3C248.3,238.8,248.2,248.8,248.2,258.8z M234.4,306.5c0-1.8,0.2-3.6-2.4-3.3
		c-1,0.1-2.8-0.1-2.4,1.6c0.4,1.8,1.9,3.3,3.7,3.6C234.9,308.8,234.2,307.2,234.4,306.5z M248.1,305.6c0.6,1-0.5,3.2,1.4,3
		c1.8-0.2,2.7-2.2,3.1-3.9c0.3-1.3-0.9-1.5-1.9-1.6C248.8,302.9,247.8,303.5,248.1,305.6z"/>
	<path class="st2" d="M235.2,260.2c0,10-0.1,19.9,0.1,29.9c0.1,3.7-0.8,5-4.9,5.4c-6.1,0.5-9.1-1.7-11.4-7.3
		c-7.7-18.1-15-36.2-18.8-55.5c-1.3-6.9-1.1-6.9,5.7-6.9c8.1,0,16.3,0.2,24.4-0.1c4-0.1,5.5,0.9,5.4,5.1c-0.3,9.8-0.1,19.6-0.1,29.4
		C235.3,260.2,235.3,260.2,235.2,260.2z"/>
	<path class="st2" d="M248.2,258.8c0-10,0.1-20-0.1-30c-0.1-3.2,0.9-4.4,4.2-4.3c9.7,0.2,19.3,0.2,29,0c2.9,0,3.5,1,2.8,3.6
		c-6,20.9-11.1,42.1-20.8,61.8c-1.8,3.7-9.6,6.3-13.3,4.3c-1.9-1-1.4-2.9-1.4-4.5c-0.1-10.3,0-20.6,0-31
		C248.5,258.8,248.3,258.8,248.2,258.8z"/>
	<path class="st2" d="M234.4,306.5c-0.2,0.7,0.5,2.3-1.1,2c-1.8-0.4-3.2-1.9-3.7-3.6c-0.4-1.7,1.3-1.5,2.4-1.6
		C234.6,302.9,234.4,304.7,234.4,306.5z"/>
	<path class="st2" d="M248.1,305.6c-0.3-2,0.8-2.7,2.6-2.5c1,0.1,2.2,0.3,1.9,1.6c-0.4,1.7-1.3,3.7-3.1,3.9
		C247.6,308.7,248.7,306.5,248.1,305.6z"/>
	<polygon class="st4" points="454.3,296.5 433.2,280.6 411.6,295.8 420.2,270.8 399.1,255 425.5,255.4 434,230.5 441.8,255.7 
		468.1,256.1 446.5,271.3 	"/>
	<polygon class="st4" points="72.6,296.5 51.6,280.6 30,295.8 38.5,270.8 17.5,255 43.8,255.4 52.4,230.5 60.1,255.7 86.5,256.1 
		64.9,271.3 	"/>
</g>
</svg>
