<?xml version="1.0" encoding="utf-8"?>
<!-- Generator: Adobe Illustrator 24.0.0, SVG Export Plug-In . SVG Version: 6.00 Build 0)  -->
<svg version="1.1" id="Layer_1" xmlns="http://www.w3.org/2000/svg" xmlns:xlink="http://www.w3.org/1999/xlink" x="0px" y="0px"
	 viewBox="0 0 1140 128.3" style="enable-background:new 0 0 1140 128.3;" xml:space="preserve">
<style type="text/css">
	.st0{fill:#01937C;}
	.st1{fill:url(#SVGID_1_);}
	.st2{opacity:0.2;}
	.st3{fill:none;stroke:#FFFFFF;stroke-miterlimit:10;}
	.st4{opacity:0.2;fill:none;stroke:#FFFFFF;stroke-miterlimit:10;enable-background:new    ;}
</style>
<title>Background</title>
<rect class="st0" width="1140" height="128"/>
<linearGradient id="SVGID_1_" gradientUnits="userSpaceOnUse" x1="1019.3808" y1="-942.1279" x2="466.9407" y2="-745.7879" gradientTransform="matrix(1 0 0 -1 135.4301 -735.5)">
	<stop  offset="0" style="stop-color:#FF4C29"/>
	<stop  offset="1" style="stop-color:#000000;stop-opacity:0"/>
</linearGradient>
<rect x="367" class="st1" width="773" height="128"/>
<g>
	<g class="st2">
		<path class="st3" d="M9.2,0C6.1,2.3,3,4.7,0,7.1"/>
		<path class="st3" d="M17.2,0C11.3,4.5,5.5,9,0,13.5"/>
		<path class="st3" d="M25.2,0C16.4,6.7,8,13.4,0,20.2"/>
		<path class="st3" d="M33.2,0C21.4,8.9,10.3,18,0,27.1"/>
		<path class="st3" d="M0,34.2C12.6,22.8,26.3,11.2,41.2,0"/>
		<path class="st3" d="M0,41.6C14.7,27.8,31.1,13.7,49.2,0"/>
		<path class="st3" d="M0,49.3C16.7,33,35.7,16.3,57.2,0"/>
		<path class="st3" d="M0,57.2C18.5,38.5,40.2,18.9,65.2,0"/>
		<path class="st3" d="M0,65.5C20.1,44.4,44.5,21.7,73.2,0"/>
		<path class="st3" d="M0,74C21.6,50.5,48.6,24.6,81.2,0"/>
		<path class="st3" d="M0,82.9C22.7,57.2,52.5,27.8,89.2,0"/>
		<path class="st3" d="M0,92.1C23.6,64.4,56,31.2,97.2,0"/>
		<path class="st3" d="M0,101.7C24,72.3,59.1,34.9,105.2,0"/>
		<path class="st3" d="M0,111.7C24,81.1,61.7,39,113.2,0"/>
		<path class="st3" d="M0,122.2C23.1,91.2,63.6,43.6,121.2,0"/>
		<path class="st3" d="M3.8,128C26,97.4,67.9,46.4,129.2,0"/>
		<path class="st3" d="M11.8,128C34,97.4,75.9,46.4,137.2,0"/>
		<path class="st3" d="M19.8,128C42,97.4,83.9,46.4,145.2,0"/>
		<path class="st3" d="M27.8,128C50,97.4,91.9,46.4,153.2,0"/>
		<path class="st3" d="M35.8,128C58,97.4,99.9,46.4,161.2,0"/>
		<path class="st3" d="M43.8,128C66,97.4,107.9,46.4,169.2,0"/>
		<path class="st3" d="M51.8,128C74,97.4,115.9,46.4,177.2,0"/>
		<path class="st3" d="M59.8,128C82,97.4,123.9,46.4,185.2,0"/>
		<path class="st3" d="M67.8,128C90,97.4,131.9,46.4,193.2,0"/>
		<path class="st3" d="M75.8,128C98,97.4,139.9,46.4,201.2,0"/>
		<path class="st3" d="M83.8,128C106,97.4,147.9,46.4,209.2,0"/>
		<path class="st3" d="M91.8,128C114,97.4,155.9,46.4,217.2,0"/>
		<path class="st3" d="M99.8,128C122,97.4,163.9,46.4,225.2,0"/>
		<path class="st3" d="M107.8,128C130,97.4,171.9,46.4,233.2,0"/>
		<path class="st3" d="M115.8,128C138,97.4,179.9,46.4,241.2,0"/>
		<path class="st3" d="M123.8,128C146,97.4,187.9,46.4,249.2,0"/>
		<path class="st3" d="M131.8,128C154,97.4,195.9,46.4,257.2,0"/>
		<path class="st3" d="M139.8,128C162,97.4,203.9,46.4,265.2,0"/>
		<path class="st3" d="M147.8,128C170,97.4,211.9,46.4,273.2,0"/>
		<path class="st3" d="M155.8,128C178,97.4,219.9,46.4,281.2,0"/>
		<path class="st3" d="M163.8,128C186,97.4,227.9,46.4,289.2,0"/>
		<path class="st3" d="M171.8,128C194,97.4,235.9,46.4,297.2,0"/>
		<path class="st3" d="M179.8,128C202,97.4,243.9,46.4,305.2,0"/>
		<path class="st3" d="M187.8,128C210,97.4,251.9,46.4,313.2,0"/>
		<path class="st3" d="M195.8,128C218,97.4,259.9,46.4,321.2,0"/>
		<path class="st3" d="M203.8,128C226,97.4,267.9,46.4,329.2,0"/>
		<path class="st3" d="M211.8,128C234,97.4,275.9,46.4,337.2,0"/>
		<path class="st3" d="M219.8,128C242,97.4,283.9,46.4,345.2,0"/>
		<path class="st3" d="M227.8,128C250,97.4,291.9,46.4,353.2,0"/>
		<path class="st3" d="M235.8,128C258,97.4,299.9,46.4,361.2,0"/>
		<path class="st3" d="M243.8,128c22-30.3,63.1-80.4,123.3-126.4c0.7-0.6,1.4-1.1,2.2-1.6"/>
		<path class="st3" d="M251.8,128c21-28.9,59.5-75.9,115.3-120.1c3.3-2.6,6.7-5.3,10.2-7.9"/>
		<path class="st3" d="M259.8,128c20-27.5,55.8-71.4,107.3-113.7C373,9.5,379,4.7,385.3,0"/>
		<path class="st3" d="M267.8,128c18.9-26.1,52-66.8,99.3-107c8.3-7.1,17-14.1,26.2-21"/>
		<path class="st3" d="M275.8,128C293.6,103.4,324,65.8,367,28c10.6-9.4,22-18.8,34.2-28"/>
		<path class="st3" d="M283.8,128c16.7-23,44.5-57.5,83.3-92.9C380,23.4,394,11.5,409.3,0"/>
		<path class="st3" d="M291.8,128c15.5-21.4,40.6-52.7,75.3-85.4c15-14.1,31.7-28.6,50.2-42.6"/>
		<path class="st3" d="M299.8,128c14.3-19.7,36.7-47.8,67.3-77.7C384,33.7,403.4,16.6,425.3,0"/>
		<path class="st3" d="M307.8,128c13-17.9,32.8-42.9,59.3-69.8c18.7-19,40.8-39,66.2-58.2"/>
		<path class="st3" d="M315.8,128c11.7-16.1,28.8-37.8,51.3-61.5C387.4,45.1,412.2,22,441.3,0"/>
		<path class="st3" d="M323.8,128c10.2-14.1,24.7-32.6,43.3-52.9C388.8,51.3,416.2,25,449.3,0"/>
		<path class="st3" d="M331.8,128c8.7-12,20.5-27.2,35.3-44C390,58,420,28.2,457.3,0"/>
		<path class="st3" d="M339.8,128c7.1-9.8,16.2-21.6,27.3-34.7c23.7-28,56.4-61.7,98.2-93.3"/>
		<path class="st3" d="M347.8,128c5.3-7.3,11.7-15.8,19.3-25.1C391.2,73.3,426.6,35.3,473.3,0"/>
		<path class="st3" d="M355.8,128c3.3-4.6,7.1-9.6,11.3-15c23.9-30.8,62-73.5,114.2-113"/>
		<path class="st3" d="M363.8,128c1-1.4,2.1-2.9,3.3-4.4C390,92.6,430.9,44.3,489.3,0"/>
		<path class="st3" d="M371.8,128C394,97.4,435.9,46.4,497.2,0"/>
		<path class="st3" d="M379.8,128C402,97.4,443.9,46.4,505.2,0"/>
		<path class="st3" d="M387.8,128C410,97.4,451.9,46.4,513.2,0"/>
		<path class="st3" d="M395.8,128C418,97.4,459.9,46.4,521.2,0"/>
		<path class="st3" d="M403.8,128C426,97.4,467.9,46.4,529.2,0"/>
		<path class="st3" d="M411.8,128C434,97.4,475.9,46.4,537.2,0"/>
		<path class="st3" d="M419.8,128C442,97.4,483.9,46.4,545.2,0"/>
		<path class="st3" d="M427.8,128C450,97.4,491.9,46.4,553.2,0"/>
		<path class="st3" d="M435.8,128C458,97.4,499.9,46.4,561.2,0"/>
		<path class="st3" d="M443.8,128C466,97.4,507.9,46.4,569.2,0"/>
		<path class="st3" d="M451.8,128C474,97.4,515.9,46.4,577.2,0"/>
		<path class="st3" d="M459.8,128C482,97.4,523.9,46.4,585.2,0"/>
		<path class="st3" d="M467.8,128C490,97.4,531.9,46.4,593.2,0"/>
		<path class="st3" d="M475.8,128C498,97.4,539.9,46.4,601.2,0"/>
		<path class="st3" d="M483.8,128C506,97.4,547.9,46.4,609.2,0"/>
		<path class="st3" d="M491.8,128C514,97.4,555.9,46.4,617.2,0"/>
		<path class="st3" d="M499.8,128C522,97.4,563.9,46.4,625.2,0"/>
		<path class="st3" d="M507.8,128C530,97.4,571.9,46.4,633.2,0"/>
		<path class="st3" d="M515.8,128C538,97.4,579.9,46.4,641.2,0"/>
		<path class="st3" d="M523.8,128C546,97.4,587.9,46.4,649.2,0"/>
		<path class="st3" d="M531.8,128C554,97.4,595.9,46.4,657.2,0"/>
		<path class="st3" d="M539.8,128C562,97.4,603.9,46.4,665.2,0"/>
		<path class="st3" d="M547.8,128C570,97.4,611.9,46.4,673.2,0"/>
		<path class="st3" d="M555.8,128C578,97.4,619.9,46.4,681.2,0"/>
		<path class="st3" d="M563.8,128C586,97.4,627.9,46.4,689.2,0"/>
		<path class="st3" d="M571.8,128C594,97.4,635.9,46.4,697.2,0"/>
		<path class="st3" d="M579.8,128C602,97.4,643.9,46.4,705.2,0"/>
		<path class="st3" d="M587.8,128C610,97.4,651.9,46.4,713.2,0"/>
		<path class="st3" d="M595.8,128C618,97.4,659.9,46.4,721.2,0"/>
		<path class="st3" d="M603.8,128C626,97.4,667.9,46.4,729.2,0"/>
		<path class="st3" d="M611.8,128C634,97.4,675.9,46.4,737.2,0"/>
		<path class="st3" d="M619.8,128C642,97.4,683.9,46.4,745.2,0"/>
		<path class="st3" d="M627.8,128C650,97.4,691.9,46.4,753.2,0"/>
		<path class="st3" d="M635.8,128C658,97.4,699.9,46.4,761.2,0"/>
		<path class="st3" d="M643.8,128C666,97.4,707.9,46.4,769.2,0"/>
		<path class="st3" d="M651.8,128C674,97.4,715.9,46.4,777.2,0"/>
		<path class="st3" d="M659.8,128C682,97.4,723.9,46.4,785.2,0"/>
		<path class="st3" d="M667.8,128C690,97.4,731.9,46.4,793.2,0"/>
		<path class="st3" d="M675.8,128C698,97.4,739.9,46.4,801.2,0"/>
		<path class="st3" d="M683.8,128C706,97.4,747.9,46.4,809.2,0"/>
		<path class="st3" d="M691.8,128C714,97.4,755.9,46.4,817.2,0"/>
		<path class="st3" d="M699.8,128C722,97.4,763.9,46.4,825.2,0"/>
		<path class="st3" d="M707.8,128C730,97.4,771.9,46.4,833.2,0"/>
		<path class="st3" d="M715.8,128C738,97.4,779.9,46.4,841.2,0"/>
		<path class="st3" d="M723.8,128C746,97.4,787.9,46.4,849.2,0"/>
		<path class="st3" d="M731.8,128C754,97.4,795.9,46.4,857.2,0"/>
		<path class="st3" d="M739.8,128C762,97.4,803.9,46.4,865.2,0"/>
		<path class="st3" d="M747.8,128C770,97.4,811.9,46.4,873.2,0"/>
		<path class="st3" d="M755.8,128C778,97.4,819.9,46.4,881.2,0"/>
		<path class="st3" d="M763.8,128C786,97.4,827.9,46.4,889.2,0"/>
		<path class="st3" d="M771.8,128C794,97.4,835.9,46.4,897.2,0"/>
		<path class="st3" d="M779.8,128C802,97.4,843.9,46.4,905.2,0"/>
		<path class="st3" d="M787.8,128C810,97.4,851.9,46.4,913.2,0"/>
		<path class="st3" d="M795.8,128C818,97.4,859.9,46.4,921.2,0"/>
		<path class="st3" d="M803.8,128C826,97.4,867.9,46.4,929.2,0"/>
		<path class="st3" d="M811.8,128C834,97.4,875.9,46.4,937.2,0"/>
		<path class="st3" d="M819.8,128C842,97.4,883.9,46.4,945.2,0"/>
		<path class="st3" d="M827.8,128C850,97.4,891.9,46.4,953.2,0"/>
		<path class="st3" d="M835.8,128C858,97.4,899.9,46.4,961.2,0"/>
		<path class="st3" d="M843.8,128C866,97.4,907.9,46.4,969.2,0"/>
		<path class="st3" d="M851.8,128C874,97.4,915.9,46.4,977.2,0"/>
		<path class="st3" d="M859.8,128C882,97.4,923.9,46.4,985.2,0"/>
		<path class="st3" d="M867.8,128C890,97.4,931.9,46.4,993.2,0"/>
		<path class="st3" d="M875.8,128C898,97.4,939.9,46.4,1001.2,0"/>
		<path class="st3" d="M883.8,128C906,97.4,947.9,46.4,1009.2,0"/>
		<path class="st3" d="M891.8,128C914,97.4,955.9,46.4,1017.2,0"/>
		<path class="st3" d="M899.8,128C922,97.4,963.9,46.4,1025.2,0"/>
		<path class="st3" d="M907.8,128C930,97.4,971.9,46.4,1033.2,0"/>
		<path class="st3" d="M915.8,128C938,97.4,979.9,46.4,1041.2,0"/>
		<path class="st3" d="M923.8,128C946,97.4,987.9,46.4,1049.2,0"/>
		<path class="st3" d="M931.8,128C954,97.4,995.9,46.4,1057.2,0"/>
		<path class="st3" d="M939.8,128c22.2-30.6,64.1-81.6,125.4-128"/>
		<path class="st3" d="M947.8,128c22.2-30.6,64.1-81.6,125.4-128"/>
		<path class="st3" d="M955.8,128c22.2-30.6,64.1-81.6,125.4-128"/>
		<path class="st3" d="M963.8,128c22.2-30.6,64.1-81.6,125.4-128"/>
		<path class="st3" d="M971.8,128c22.2-30.6,64.1-81.6,125.4-128"/>
		<path class="st3" d="M979.8,128c22.2-30.6,64.1-81.6,125.4-128"/>
		<path class="st3" d="M987.8,128c22.2-30.6,64.1-81.6,125.4-128"/>
		<path class="st3" d="M995.8,128c22.2-30.6,64.1-81.6,125.4-128"/>
		<path class="st3" d="M1003.8,128c22.2-30.6,64.1-81.6,125.4-128"/>
		<path class="st3" d="M1011.8,128c22.2-30.6,64.1-81.6,125.4-128"/>
		<path class="st3" d="M1019.8,128c21.6-29.8,61.8-78.7,120.3-124.1"/>
		<path class="st3" d="M1027.8,128c20.6-28.4,58.1-74.2,112.3-117.7"/>
		<path class="st3" d="M1035.8,128c19.6-27,54.4-69.7,104.3-111.2"/>
		<path class="st3" d="M1043.8,128c18.5-25.5,50.6-65.1,96.3-104.4"/>
		<path class="st3" d="M1051.8,128c17.4-24,46.9-60.4,88.3-97.4"/>
	</g>
	<path class="st4" d="M1059.8,128c16.3-22.4,43.1-55.7,80.3-90.1"/>
	<path class="st4" d="M1067.8,128c15.1-20.8,39.2-50.9,72.3-82.6"/>
	<path class="st4" d="M1075.8,128c13.8-19.1,35.3-46,64.3-74.8"/>
	<path class="st4" d="M1083.8,128c12.5-17.3,31.3-41,56.3-66.7"/>
	<path class="st4" d="M1091.8,128c11.1-15.4,27.2-35.8,48.3-58.3"/>
	<path class="st4" d="M1099.8,128c9.7-13.4,23.1-30.6,40.3-49.6"/>
	<path class="st4" d="M1107.8,128c8.1-11.2,18.9-25.1,32.3-40.5"/>
	<path class="st4" d="M1115.8,128c6.4-8.9,14.5-19.4,24.3-31.1"/>
	<path class="st4" d="M1123.8,128c4.6-6.3,10-13.5,16.3-21.3"/>
	<path class="st4" d="M1140,116.9c-3,3.9-5.8,7.6-8.3,11.1"/>
	<path class="st4" d="M1140,127.6c-0.1,0.1-0.2,0.2-0.3,0.4"/>
</g>
</svg>
