<?xml version="1.0" encoding="utf-8"?>
<!-- Generator: Adobe Illustrator 24.0.0, SVG Export Plug-In . SVG Version: 6.00 Build 0)  -->
<svg version="1.1" id="Layer_1" xmlns="http://www.w3.org/2000/svg" xmlns:xlink="http://www.w3.org/1999/xlink" x="0px" y="0px"
	 viewBox="0 0 509.58 257.44" style="enable-background:new 0 0 509.58 257.44;" xml:space="preserve">
<style type="text/css">
	.st0{fill:#0AA4DF;}
	.st1{fill:#060606;}
	.st2{fill:#4D4C4C;}
</style>
<g>
	<path class="st0" d="M271.98,36.42c-0.7-4.25-1.85-8.38-3.72-12.29c-3.61-7.62-9.26-13.04-17.25-15.92
		c-3.01-1.08-6.12-1.75-9.32-2.03c-7.68-0.66-15.21,0.21-22.64,2.17c-11.21,2.95-21.6,7.83-31.58,13.63
		c-18.06,10.53-34.21,23.57-49.51,37.74c-0.39,0.36-0.68,0.82-0.97,1.18c0.33,1.3,1,2.06,2.3,2.44c0.8-0.69,1.63-1.41,2.44-2.15
		c4.27-3.91,8.61-7.75,13.05-11.47c4.46-3.74,9.03-7.36,13.71-10.82c2.41-1.79,4.86-3.51,7.33-5.21c2.41-1.66,4.8-3.41,7.31-4.9
		c1.06-0.62,2.13-1.21,3.22-1.79c0.54-0.29,1.09-0.57,1.64-0.85c0.49-0.25,1.14-0.45,1.58-0.79c-4.65,3.63-9.39,7.14-13.94,10.88
		c-4.65,3.82-9.15,7.84-13.71,11.78c-1.14,0.98-2.27,1.96-3.41,2.94c-0.55,0.48-1.11,0.96-1.66,1.44c-0.28,0.24-0.55,0.49-0.83,0.73
		c-0.12,0.1-0.83,0.58-0.83,0.72c-0.68,0.6-1.68,1.04-1.68,2.37c0.99,1.12,1.73,2.63,3.48,3.24c3.41-2.96,6.75-5.88,10.1-8.79
		c4.43-3.86,8.96-7.62,13.52-11.32c4.45-3.61,8.95-7.15,13.58-10.53c4.63-3.38,9.39-6.6,14.3-9.56c0.05-0.03,0.1-0.06,0.15-0.09
		c1.4-0.83,2.76-1.76,4.37-2.17c0.01-0.03,0.02-0.05,0.02-0.08c0.04,0,0.09-0.01,0.13-0.01c0.16-0.15,0.29-0.29,0.47-0.42
		c0.09-0.06,0.29-0.09,0.35-0.03c0.27,0.27,0.18,0.41-0.22,0.41c-0.2,0-0.4,0.03-0.6,0.04c-0.03,0.02-0.05,0.04-0.08,0.07
		c-0.03,0.01-0.04,0.01-0.07,0.02c-0.1,0.77-0.81,1-1.34,1.33c-4.82,3-9.48,6.26-14.03,9.65c-4.57,3.4-9.03,6.96-13.39,10.63
		c-2.33,1.95-4.64,3.92-6.95,5.9c-1.15,0.99-2.3,1.98-3.45,2.98c-0.96,0.84-2.2,1.65-2.98,2.67c-0.49,0.65-1.31,1.06-1.46,2.31
		c0.97,0.99,1.74,2.48,3.41,3.32c1.58-1.4,3.14-2.76,4.68-4.14c5.88-5.29,11.92-10.38,18.14-15.26
		c8.19-6.42,16.63-12.47,25.85-17.37c4.67-2.48,9.5-4.53,14.69-5.68c2.47-0.55,4.95-0.63,7.43-0.23c0.63,0.1,1.59,0.1,1.72,1.17
		c-8.03,0.6-10.45,1.16-16.81,4.33c-2.97,1.48-5.88,3.12-8.72,4.84c-7.12,4.32-13.77,9.32-20.28,14.51
		c-15.74,12.55-30.44,26.25-44.85,40.27c-0.41,0.39-0.79,0.79-0.7,1.66c1.3,1.47,2.47,3.34,4.45,4.54c0.94-0.87,1.77-1.6,2.56-2.37
		c11.18-10.78,22.51-21.39,34.38-31.41c8.8-7.44,17.77-14.62,27.51-20.82c3.28-2.09,6.66-3.98,10.19-5.6
		c7.51-3.44,15.32-3.33,23.23-1.93c0.79,0.14,1.55,0.56,2.26,0.97c0.29,0.17,0.4,0.68,0.56,0.99c-0.47,0.52-1,0.55-1.56,0.46
		c-7.22-1.19-14.06,0.28-20.72,2.96c-10.09,4.06-19.52,9.25-28.05,16.03c-6.94,5.54-13.58,11.42-20.1,17.44
		c-16.08,14.88-31.49,30.44-46.78,46.13c-0.76,0.79-1.7,1.45-2.05,2.57c0.22,1.18,1.14,1.88,1.86,2.7c0.72,0.81,1.26,1.85,2.7,2.27
		c0.97-0.94,2.06-1.96,3.1-3.02c13.15-13.52,26.44-26.88,40.12-39.86c8.25-7.83,16.63-15.5,25.54-22.59
		c8.09-6.44,17.06-11.33,26.62-15.18c3.49-1.41,7.11-2.37,10.86-2.7c5.29-0.46,9.85,1.11,13.4,5.2c0.53,0.61,1.01,1.25,1.53,1.88
		c-0.73,0.07-1.33-0.23-1.95-0.58c-4.17-2.33-8.61-2.83-13.29-2.07c-3.86,0.63-7.55,1.73-11.14,3.22
		c-7.74,3.21-14.78,7.6-21.58,12.41C206.72,59.25,196.69,68,187,77.13c-0.49,0.47-1.07,0.91-1.14,1.86c1.53,2.1,3.35,4.12,5.39,6.08
		c1.72-1.1,2.9-2.46,4.21-3.67c9.9-9.13,20.08-17.9,31.28-25.41c5.42-3.63,11.01-6.95,17.15-9.27c2.74-1.03,5.54-1.83,8.43-2.15
		c5.75-0.64,8.9,1.35,10.84,6.78c0.9,2.5,1.4,5.08,1.55,7.72c0.32,5.82,0.26,11.63-0.51,17.43c-0.29,2.23-0.51,4.46-0.78,6.83
		c0.32-0.19,0.48-0.23,0.55-0.34c0.31-0.45,0.63-0.9,0.88-1.4C272.1,67.31,274.6,52.26,271.98,36.42z M260.11,25.23
		c-0.09-0.17-0.19-0.33-0.23-0.51c-0.02-0.05,0.16-0.16,0.25-0.23c0.08,0.17,0.19,0.33,0.23,0.51
		C260.36,25.06,260.2,25.15,260.11,25.23z M265.57,38.58c0.01,0.02,0.03,0.03,0.03,0.04l0.04,0.11L265.57,38.58z"/>
	<path class="st0" d="M370.35,84.51c-3.16,2.83-6.33,5.72-9.55,8.54c-11.17,9.78-22.85,18.89-35.47,26.77l-5.49,2.9l4.54-3.6
		c10.34-7.95,20.31-16.33,30.01-25.04c0.68-0.62,1.69-1.04,1.7-2.18c-1.58-2.31-1.59-2.31-3.59-3.38c-2.34,2.05-4.65,4.25-7.13,6.24
		c-6.85,5.5-13.33,11.44-20.22,16.9c-5.45,4.33-11.05,8.48-16.8,12.4c-4.09,2.78-8.25,5.44-12.9,7.32c0.9-0.36,1.79-1.13,2.61-1.66
		c0.89-0.59,1.79-1.17,2.69-1.77c1.78-1.19,3.54-2.4,5.29-3.64c3.49-2.47,6.92-5.03,10.29-7.66c6.88-5.37,13.82-10.74,19.86-17.07
		c0.35-0.37,3.98-4.17,3.98-4.27c-0.96-1.04-1.7-2.57-3.28-3.1c-6.27,5.35-12.31,10.65-18.52,15.76
		c-9.21,7.58-18.81,14.65-29.31,20.4c-4.14,2.27-8.41,4.25-12.99,5.49c-2.81,0.77-5.67,1.4-8.61,1.08c-0.92-0.1-1.98-0.06-2.5-1.4
		c7.37-0.01,13.81-2.81,20.04-6.25c5.96-3.28,11.57-7.11,17.02-11.17c18.84-14.03,35.97-30.01,52.79-46.34
		c0.38-0.37,0.67-0.84,1.17-1.5c-1.53-1.64-2.72-3.45-4.44-4.71c-1.46,0.45-2.14,1.56-3.04,2.39c-7.61,7.09-15.12,14.28-22.81,21.28
		c-9.24,8.4-18.77,16.45-28.83,23.86c-5.58,4.12-11.35,7.92-17.46,11.24c-6.19,3.36-12.77,4.47-19.69,4.02
		c-2.34-0.16-4.71-0.24-6.98-0.97c-1.46-0.47-2.85-0.99-3.69-2.41c0.86-0.7,1.66-0.28,2.43-0.09c3.84,0.97,7.7,0.83,11.55,0.17
		c3.02-0.51,5.94-1.36,8.79-2.47c10.39-4.06,20.09-9.36,28.86-16.29c6.32-4.99,12.35-10.3,18.28-15.74
		c17.29-15.84,33.72-32.54,50.1-49.3c0.38-0.39,0.8-0.78,0.75-1.7c-1.14-1.56-2.5-3.22-4.37-4.73c-1.22,1.2-2.31,2.24-3.36,3.31
		c-16.59,16.94-33.24,33.81-50.81,49.75c-5.86,5.31-11.79,10.55-18.19,15.19c-7.44,5.41-15.54,9.65-24.1,12.96
		c-3.37,1.31-6.88,2.15-10.51,2.37c-5.16,0.31-9.53-1.38-12.96-5.33c-0.44-0.49-0.86-1.02-0.67-1.75
		c5.86,3.47,12.05,3.54,18.43,1.82c2.42-0.65,4.77-1.43,7.08-2.37c5.42-2.2,10.49-5.04,15.38-8.2c13.46-8.67,25.51-19.07,37.1-30.05
		c0.39-0.36,0.68-0.83,1.09-1.35c-0.34-0.52-0.58-1.01-0.93-1.4c-1.44-1.66-2.92-3.31-4.28-4.84c-1.33,0.19-1.89,1.05-2.57,1.69
		c-5.44,5.13-11.02,10.12-16.8,14.89c-7.7,6.35-15.66,12.36-24.39,17.26c-3.87,2.18-7.87,4.07-12.14,5.34
		c-2.27,0.68-4.57,1.2-6.92,1.3c-4,0.16-6.97-1.47-8.68-5.18c-0.81-1.77-1.37-3.61-1.72-5.53c-1.09-6.06-0.92-12.14-0.36-18.22
		c0.29-3.23,0.71-6.46,1.18-10.59c-0.84,1.33-1.24,1.86-1.53,2.45c-7.06,14.02-9.68,28.79-7.21,44.35
		c0.81,5.08,2.16,10.01,4.61,14.59c3.75,7.04,9.38,11.92,16.92,14.52c3.41,1.18,6.95,1.85,10.58,2.01
		c6.98,0.32,13.81-0.47,20.58-2.21c10.95-2.83,21.13-7.52,30.88-13.13c18.49-10.62,34.98-23.89,50.57-38.36
		c0.39-0.36,0.68-0.82,0.99-1.2C372.27,85.7,371.65,84.89,370.35,84.51z"/>
	<path class="st1" d="M120.15,186.03c-5.4,0.17-10.64,0.06-15.88,0.08c-5.13,0.02-10.26,0-15.39,0c-5.26,0-10.52,0-15.95,0
		c-0.75,3.16-0.36,6.14-0.26,9.41c3.8,0.32,7.51,0.11,11.21,0.14c3.74,0.04,7.49,0.01,11.23,0.01s7.49,0,11.23,0
		c3.72,0,7.45,0.01,11.4,0.01c0.31,2.72,0.28,5.14,0.03,7.48c-1.26,0.93-2.56,0.56-3.76,0.56c-12.34,0.03-24.68,0.01-37.02,0.03
		c-1.35,0-2.76-0.3-4.26,0.45c-0.38,2.78-0.21,5.65-0.07,8.59c1.37,0.67,2.76,0.38,4.1,0.38c13.03,0.02,26.07,0.01,39.1,0.01
		c1.36,0,2.73,0,4.23,0c0.48,2.73,0.17,5.16,0.22,7.33c-0.38,0.36-0.47,0.47-0.59,0.55c-0.11,0.07-0.25,0.13-0.38,0.14
		c-0.69,0.04-1.38,0.1-2.07,0.1c-17.6,0.01-35.2,0-52.55,0c-0.91-0.64-0.91-1.34-0.91-2.03c0-13.17,0-26.33,0.01-39.5
		c0-0.4,0.12-0.79,0.22-1.44c4.65-0.52,9.33-0.17,13.99-0.23c4.71-0.06,9.43-0.01,14.14-0.01c4.58,0,9.15-0.01,13.73,0
		c4.68,0.02,9.37-0.08,14.24,0.08C120.44,180.89,120.45,183.31,120.15,186.03z"/>
	<path class="st1" d="M282.33,206.56c-0.03,2.77-0.02,5.1-0.08,7.42c-0.06,2.32,0.21,4.65-0.24,7.2c-2.75,0.17-5.33,0.22-8.05-0.05
		c-0.11-0.6-0.28-1.12-0.3-1.65c-0.35-8.93-0.1-37.66,0.34-41.05c0.87-0.6,1.86-0.34,2.79-0.34c17.05-0.02,34.09-0.01,51.14,0
		c1.11,0,2.23,0,3.31,0.17c2.73,0.43,4.75,2.47,5.22,5.2c0.12,0.68,0.15,1.38,0.15,2.07c0.01,4.57,0,9.14,0,13.72
		c0,1.25-0.08,2.5-0.69,3.63c-1.22,2.25-3.14,3.46-5.67,3.66c-0.96,0.08-1.94,0.03-2.91,0.03c-13.44,0-26.89,0-40.33,0
		C285.62,206.56,284.24,206.56,282.33,206.56z M282.25,198.35c5.42,0,10.37,0,15.32,0c5.12,0,10.23,0.05,15.35-0.01
		c4.92-0.06,9.86,0.29,15.03-0.24c0-2.15,0.05-4.06-0.01-5.98c-0.06-1.89,0.28-3.82-0.26-5.7c-0.57-0.13-0.96-0.3-1.35-0.3
		c-14.38,0.02-28.76,0.05-43.13,0.08c-0.12,0-0.25,0.1-0.36,0.17c-0.12,0.07-0.22,0.17-0.46,0.37c-0.04,0.55-0.12,1.23-0.13,1.9
		C282.25,191.69,282.25,194.71,282.25,198.35z"/>
	<path class="st1" d="M186.69,178.23c0,2.66,0,4.99,0,7.31c-0.95,0.93-2.12,0.56-3.18,0.56c-14.27,0.03-28.54,0.02-42.81,0.02
		c-1.52,0-3.03,0-4.51,0c-0.64,2.98-0.8,21.28-0.24,26.92c2.65,0.3,5.39,0.12,8.1,0.15c2.91,0.03,5.82,0.01,8.73,0.01
		c2.77,0,5.54,0,8.31,0s5.54,0,8.31,0c2.91,0,5.82,0,8.73,0c2.75,0,5.5,0,8.29,0c0.61,1.4,0.34,2.64,0.39,3.85
		c0.04,1.23,0.01,2.46,0.01,3.34c-0.87,1.17-1.76,0.92-2.55,0.92c-16.35,0.01-32.7,0.01-49.05,0.01c-0.83,0-1.67,0.01-2.49-0.11
		c-3.15-0.48-5.25-2.55-5.74-5.7c-0.15-0.95-0.12-1.93-0.12-2.9c-0.01-8.59-0.02-17.17,0.01-25.76c0-1.24,0.04-2.51,0.31-3.71
		c0.62-2.78,2.65-4.54,5.48-4.92c0.82-0.11,1.66-0.11,2.49-0.11c16.49-0.01,32.97-0.01,49.46,0
		C185.16,178.09,185.71,178.16,186.69,178.23z"/>
	<path class="st1" d="M405.06,221.18c-3.62,0-6.77,0-10.13,0c-2.45-3.44-4.93-6.91-7.36-10.32c-10.96,0-21.74,0-32.52,0
		c-2.45,3.46-4.84,6.83-7.34,10.35c-1.65,0.03-3.29,0.1-4.93,0.08c-1.6-0.02-3.24,0.18-4.79-0.18c0-0.52-0.11-0.86,0.02-1.03
		c9.73-13.94,19.48-27.87,29.25-41.84c2.71,0,5.31,0,7.86,0C378.08,181.85,403.27,217.89,405.06,221.18z M371.56,187.95
		c-0.63,0.54-1,0.74-1.22,1.06c-2.79,3.96-5.57,7.94-8.34,11.91c-0.32,0.45-0.6,0.92-0.19,1.48c10.53,0.44,16.48,0.29,19.52-0.55
		C378.1,197.27,374.94,192.77,371.56,187.95z"/>
	<path class="st1" d="M237.55,221.02c-0.19-5.7,0.03-11.2-0.12-16.3c-0.52-0.95-1.09-0.95-1.63-0.95c-10.66-0.01-21.32-0.01-31.99,0
		c-0.4,0-0.79,0.13-1.36,0.23c-0.53,2.85-0.18,5.75-0.25,8.62c-0.07,2.74,0.07,5.48-0.09,8.36c-2.95,0.53-5.64,0.4-8.34,0.15
		c-0.18-0.64-0.37-1.02-0.37-1.4c-0.02-13.7-0.01-27.4-0.01-41.19c2.84-0.8,5.56-0.38,8.51-0.35c0.57,2,0.22,3.91,0.29,5.79
		c0.06,1.8,0.01,3.6,0.01,5.4c0,1.93,0,3.85,0,5.36c0.32,0.52,0.37,0.67,0.47,0.74c0.11,0.07,0.26,0.1,0.4,0.1
		c10.8,0.04,21.59,0.08,32.39,0.1c0.53,0,1.07-0.11,1.69-0.18c0.64-2.94,0.25-5.84,0.32-8.72c0.07-2.74,0.01-5.49,0.01-8.35
		c3.01-0.53,5.72-0.36,8.26-0.19c0.26,0.3,0.37,0.38,0.43,0.49c0.06,0.12,0.11,0.26,0.11,0.4c0.02,12.73,0.04,25.47,0.06,38.2
		c0,1.1,0,2.2,0,3.46C243.41,221.72,240.62,221.32,237.55,221.02z"/>
	<path class="st1" d="M509.17,221.14c-2.56,0.22-5.24,0.38-8.2-0.2c0-5.62,0-11.12,0-16.2c-0.36-0.52-0.42-0.67-0.52-0.74
		c-0.11-0.08-0.26-0.12-0.39-0.12c-10.8-0.05-21.6-0.1-32.4-0.13c-0.53,0-1.07,0.13-1.86,0.23c-0.71,5.65,0.04,11.29-0.47,16.94
		c-1.44,0.63-2.83,0.32-4.17,0.37c-1.23,0.05-2.46,0.01-3.32,0.01c-1.21-0.84-0.96-1.73-0.96-2.52
		c-0.02-12.74-0.01-25.48-0.01-38.22c0-0.68,0.08-1.37,0.14-2.14c2.65-0.71,5.28-0.13,7.65-0.36c1.09,0.72,0.83,1.62,0.83,2.41
		c0.02,4.02,0,8.03,0.02,12.05c0.01,0.94-0.25,1.95,0.49,2.75c3.13,0.49,28.66,0.63,34.37,0.19c0.1-0.07,0.23-0.13,0.3-0.22
		c0.08-0.11,0.15-0.25,0.15-0.38c0.01-5.39,0.01-10.78,0.01-16.33c2.94-0.79,5.64-0.36,8.18-0.36c0.24,0.25,0.36,0.34,0.43,0.46
		c0.07,0.11,0.15,0.24,0.15,0.36c0.01,13.71,0.02,27.41,0.01,41.12C509.6,220.36,509.41,220.6,509.17,221.14z"/>
	<path class="st1" d="M426.03,221.3c-2.22,0-3.86,0.02-5.51-0.01c-0.95-0.02-1.9-0.1-2.65-0.15c-1-0.98-0.7-2-0.7-2.92
		c-0.02-9.28,0-18.57-0.03-27.85c0-1.35,0.34-2.78-0.59-4.28c-7.61,0-15.35,0-23.1,0c-0.83-1.31-0.44-2.57-0.51-3.76
		c-0.06-1.23-0.01-2.48-0.01-3.5c0.86-0.9,1.73-0.74,2.53-0.74c17.33-0.01,34.66-0.01,51.98,0c0.82,0,1.63,0.11,2.58,0.18
		c0.42,2.57,0.26,5.01,0.08,7.55c-2.69,0.57-5.32,0.2-7.93,0.27c-2.63,0.07-5.27,0.01-7.9,0.01c-2.62,0-5.23,0-7.91,0
		c-0.63,3.12-0.27,6.03-0.33,8.91c-0.06,2.91-0.01,5.82-0.01,8.73c0,2.77,0,5.54,0,8.31C426.03,214.96,426.03,217.86,426.03,221.3z"
		/>
	<path class="st1" d="M24.35,220.86c-0.29-2.8-0.1-5.68-0.13-8.55c-0.03-2.91-0.01-5.82-0.01-8.73c0-2.77,0-5.54,0-8.31
		c0-2.89,0-5.79,0-8.93c-2.82-0.44-5.42-0.18-7.99-0.22c-2.63-0.05-5.26-0.01-7.9-0.01c-2.62,0-5.24,0-8.01,0
		c-0.58-2.66-0.15-5.1-0.31-7.33c0.33-0.29,0.42-0.39,0.53-0.46c0.12-0.07,0.25-0.16,0.38-0.16c17.31-0.03,34.63-0.06,51.94-0.09
		c1.11,0,2.21,0.03,3.32,0.08c0.26,0.01,0.51,0.18,0.96,0.36c0.3,2.35,0.24,4.77-0.01,7.36c-4.11,0.44-8.12,0.16-12.11,0.22
		c-3.85,0.06-7.71-0.03-11.33,0.04c-1.14,1.36-0.78,2.66-0.78,3.86c-0.03,8.86-0.02,17.73-0.02,26.59c0,1.37,0,2.73,0,4.02
		C30,221.48,28.47,221.52,24.35,220.86z"/>
	<path class="st0" d="M370.75,246.62c1.47,0,2.85,0,4.22,0c43.38,0,86.76,0,130.14,0c1.11,0,2.22,0.01,3.32,0.04
		c0.61,0.02,1.1,0.3,1.14,0.94c0.05,0.86-0.51,1.21-1.29,1.24c-0.83,0.03-1.66,0.02-2.49,0.02c-43.93,0-87.87,0-131.8,0
		c-0.97,0-1.97,0.08-2.89-0.14C370.34,248.54,370.17,247.8,370.75,246.62z"/>
	<path class="st0" d="M0.51,246.62c1.46,0,2.84,0,4.21,0c43.36,0,86.73,0,130.09,0c0.97,0,1.94,0,2.91,0.01c0.72,0,1.4,0.11,1.53,1
		c0.11,0.72-0.54,1.19-1.73,1.23c-0.55,0.02-1.11,0.01-1.66,0.01c-44.06,0-88.11,0-132.17,0c-0.97,0-1.97,0.08-2.89-0.15
		C0.07,248.53-0.12,247.79,0.51,246.62z"/>
	<path class="st0" d="M226.9,257.11c-1.23,0.48-1.89,0.59-2.81-0.16c-0.24-3.66,0.07-7.61-0.19-11.94c-1.4,0.73-1.72,1.82-2.29,2.67
		c-0.54,0.8-1.01,1.65-1.51,2.48c-0.57,0.95-1.12,1.91-1.71,2.84c-0.5,0.79-0.77,1.81-2.18,2.12c-2.99-2.42-3.85-6.63-6.81-9.65
		c-0.91,1.37-0.55,2.62-0.6,3.77c-0.06,1.38-0.02,2.77-0.02,4.15c0,1.22,0,2.45,0,3.45c-0.97,0.82-1.73,0.9-2.52,0.39
		c-0.56-0.58-0.71-9.22-0.32-18.52c1.85-0.97,2.24-0.99,3.03,0.28c1.68,2.7,3.26,5.46,4.91,8.18c0.7,1.16,1.23,2.45,2.22,3.27
		c1.23,0.01,1.49-0.9,1.89-1.56c1.78-2.96,3.49-5.97,5.25-8.94c0.35-0.59,0.7-1.24,1.22-1.64c0.38-0.29,1.06-0.36,1.57-0.27
		c0.54,0.1,0.89,0.59,0.89,1.23C226.9,245.18,226.9,251.1,226.9,257.11z"/>
	<path class="st0" d="M343.83,257.57c0-6.75,0-12.94,0-19.1c3.03-0.72,9.17-0.78,11.58-0.14c4.25,1.13,7.03,4.61,7.22,9.05
		c0.19,4.35-2.37,8.15-6.54,9.53c-1.16,0.38-2.43,0.59-3.65,0.63C349.69,257.63,346.94,257.57,343.83,257.57z M346.89,254.85
		c2.41,0,4.63,0.21,6.79-0.05c3.42-0.41,5.69-3.04,5.92-6.41c0.25-3.72-1.67-6.73-5.05-7.51c-2.53-0.59-5.13-0.64-7.63-0.06
		C346.3,244.25,346.29,250.8,346.89,254.85z"/>
	<path class="st0" d="M320.35,246.55c0.42,1.95,0.27,2.3-1.07,2.34c-1.66,0.05-3.32,0-4.98,0.03c-0.94,0.02-1.93-0.21-3.05,0.63
		c-0.25,1.53-0.29,3.25,0.1,5.15c3.51,0.63,6.97,0,10.47,0.41c0.17,0.31,0.47,0.64,0.51,1.01c0.05,0.37-0.15,0.77-0.31,1.44
		c-4.53,0.03-9.05,0.07-13.52-0.03c-0.61-3.54-0.62-15.82-0.02-19.48c4.33-0.28,8.71-0.12,12.95-0.11c0.28,0.5,0.51,0.74,0.52,0.98
		c0,0.39-0.14,0.79-0.25,1.28c-3.29,0.71-6.64-0.04-10.01,0.49c-1.08,1.63-0.57,3.36-0.37,5.29
		C314.38,246.8,317.46,245.93,320.35,246.55z"/>
	<path class="st2" d="M167.61,96.88c1.43,1.6,2.72,3.01,3.98,4.45c0.53,0.61,1.23,1.11,1.38,1.97c-1.89,2.6-9.15,10.6-11.51,12.62
		c-2.03-1.74-4.09-3.51-6.12-5.26C157.27,107.62,163.22,100.91,167.61,96.88z"/>
	<path class="st2" d="M348.17,31.8c2.16,1.84,4.14,3.53,6.08,5.19c-1.8,3.1-8.74,10.84-12.25,13.7c-1.91-1.88-3.73-3.88-5.34-6
		C338.13,42.37,345.18,34.44,348.17,31.8z"/>
	<path class="st0" d="M182.11,81.8c2.29,2.18,4.05,4.25,5.68,6.39c-2.21,2.94-9.03,9.75-11.5,11.51c-1.27-0.63-1.99-1.86-2.9-2.86
		c-0.92-1-1.72-2.1-2.68-3.28C174.23,89.42,178.12,85.9,182.11,81.8z"/>
	<path class="st0" d="M327.12,65.83c-1.78-2-3.57-4.03-5.5-6.19c3.68-4.25,7.69-7.76,11.31-11.7c1.54,0.72,2.24,1.94,3.14,2.91
		c0.93,1,1.79,2.08,2.65,3.09C337.18,56.6,330.58,63.38,327.12,65.83z"/>
	<path class="st2" d="M401.86,4.62c-4.41,4.7-8.48,9.15-12.92,13.7c-1.65-1.87-3.07-3.5-4.67-5.32c4.12-4.41,8.06-8.63,12.14-13
		C398.5,1.06,399.86,2.77,401.86,4.62z"/>
	<path class="st2" d="M120.19,129.97c1.08-0.01,1.42,0.46,1.76,0.88c1.02,1.29,2.38,2.32,3.06,3.85
		c-1.94,2.72-9.59,10.87-12.23,13.01c-1.64-1.4-3.4-2.71-4.82-4.75C112.11,138.49,116.19,134.06,120.19,129.97z"/>
	<path class="st0" d="M373.12,34.58c-1.53-1.75-2.88-3.28-4.18-4.77c1.6-2.57,8.64-10.11,12.3-13.19c1.75,1.26,2.98,3.04,4.27,4.7
		C383.97,23.88,377.1,31.24,373.12,34.58z"/>
	<path class="st0" d="M128.58,131.42c-1.99-1.71-3.32-3.27-4.51-4.93c1.72-2.65,9.42-10.76,12.24-12.91
		c1.22,0.48,1.84,1.62,2.68,2.52c0.65,0.69,1.18,1.47,1.89,2.36C136.9,122.92,132.85,127.06,128.58,131.42z"/>
	<path class="st2" d="M381.87,32.19c1.7,1.6,3.19,3,4.65,4.37c-1.83,2.87-8.14,9.65-12.02,12.95c-1.17-0.17-1.64-1.3-2.38-2.05
		c-0.77-0.78-1.43-1.68-2.11-2.5C371.53,42.62,377.84,35.8,381.87,32.19z"/>
	<path class="st2" d="M127.65,115.44c-1.48-1.37-2.98-2.76-4.59-4.25c0.75-1.99,2.4-3.09,3.63-4.49c1.36-1.56,2.84-3,4.25-4.51
		c1.31-1.4,2.61-2.82,4.03-4.35c2.02,1.58,3.31,3.31,4.64,4.97C137.91,105.39,130.28,113.47,127.65,115.44z"/>
	<path class="st0" d="M359.39,65.19c-1.86-1.65-3.33-3.23-4.5-5.06c2.45-3.12,9.38-10.01,11.75-11.7c1.19,0.52,1.85,1.63,2.68,2.54
		c0.63,0.69,1.16,1.48,1.87,2.38C367.28,57.41,363.46,61.34,359.39,65.19z"/>
	<path class="st0" d="M150.39,82.75c1.76,1.63,3.2,3.23,4.51,5.23c-3.89,4.03-7.81,7.82-11.67,11.77c-2-1.53-3.21-3.17-4.42-4.76
		C140.35,92.26,144.85,87.49,150.39,82.75z"/>
	<path class="st0" d="M278.8,240.97c-2.15-0.72-3.83-0.35-5.46-0.52c-0.98-0.1-1.08-0.32-0.98-2.12c0.58-0.5,1.28-0.43,1.97-0.43
		c3.73-0.01,7.46-0.01,11.19,0c0.55,0,1.11,0.01,1.65,0.06c0.73,0.07,1.29,0.76,1.16,1.41c-0.12,0.58-0.46,1.01-1.08,1.05
		c-0.96,0.06-1.93,0.03-2.9,0.07c-0.67,0.03-1.34,0.14-2.21,0.23c-0.86,2.74-0.33,5.49-0.43,8.19c-0.11,2.73,0.07,5.48-0.08,7.96
		c-1.02,0.86-1.76,0.78-2.82,0.05C278.8,251.82,278.8,246.48,278.8,240.97z"/>
	<path class="st0" d="M141.42,73.32c-1.41-1.09-2.34-2.25-3.3-3.69c4.07-4.22,8.42-7.99,12.77-11.93c1.59,0.97,2.57,2.22,3.37,3.61
		C152.52,63.66,145.42,70.32,141.42,73.32z"/>
	<path class="st0" d="M368.27,74.61c0.38,0.34,0.82,0.66,1.18,1.05c0.64,0.7,1.24,1.45,1.83,2.15c-1.63,2.65-9.21,9.81-12.84,12.16
		c-1.28-0.82-2.17-2.01-3.01-3.24C356.83,84.41,364.45,77.23,368.27,74.61z"/>
	<path class="st2" d="M382.47,60.72c1.39,1.12,2.53,2.09,3.48,3.62c-3.77,4-7.83,7.72-11.69,11.42c-1.18,0.01-1.6-0.78-2.14-1.37
		c-0.56-0.61-1.06-1.27-1.57-1.88C372.29,70.13,378.8,63.68,382.47,60.72z"/>
	<path class="st2" d="M357.11,79.45c-1.29-0.98-2.39-2.14-3.22-3.75c3.46-3.63,6.88-7.23,10.32-10.82c0.27-0.28,0.65-0.46,1.09-0.76
		c1.38,0.71,2.36,1.85,3.39,2.9C367.3,69.67,361.17,76.26,357.11,79.45z"/>
	<path class="st2" d="M152.55,68.35c1.25,0.8,2.08,2.05,3.01,3.16c-1.27,2.31-5.62,7.06-11.03,12.06c-0.93-0.01-1.38-0.79-2.01-1.27
		c-0.66-0.5-1.33-0.97-1.91-1.4C142.86,77.52,149.42,70.67,152.55,68.35z"/>
	<path class="st2" d="M127,87.09c-1.19-1.24-2.2-2.3-3.35-3.5c3.78-4.28,7.94-7.83,11.94-11.83c1.61,0.93,2.5,2.26,3.46,3.49
		C137.33,77.63,130.58,84.29,127,87.09z"/>
	<path class="st0" d="M351.02,78.45c1.62,1.21,2.53,2.39,3.38,3.6c-1.85,2.72-7.07,7.88-11.23,11.12c-1.37-0.92-2.36-2.18-3.37-3.72
		C343.33,85.62,347.29,82.37,351.02,78.45z"/>
	<path class="st0" d="M170.03,58.13c-0.7,0.81-1.02,1.26-1.41,1.63c-3.3,3.16-6.61,6.3-9.97,9.5c-1.66-0.82-2.54-2.21-3.63-3.77
		c3.5-3.74,7.3-7.14,11.01-10.76C167.91,55.22,168.47,56.95,170.03,58.13z"/>
	<path class="st0" d="M147.3,238.35c0.87-0.45,1.52-0.51,2.17-0.11c0.13,0.23,0.36,0.47,0.37,0.7c0.05,3.73,0.06,7.46,0.08,11.19
		c0.01,1.37,0,2.74,0,3.81c0.74,1.15,1.62,1.01,2.43,1.02c2.35,0.05,4.7,0.01,7.04,0.12c1.11,0.05,1.21,0.91,1.01,1.82
		c-2.66,0.77-9.18,0.87-12.98,0.2C146.92,254.02,146.84,243.27,147.3,238.35z"/>
	<path class="st2" d="M386.3,73.44c-3.48,3.96-7.4,7.61-11.07,11.31c-1.53-0.28-2.07-1.17-2.44-2.24
		c2.11-2.72,9.12-9.72,11.35-11.33C385.01,71.65,385.73,72.27,386.3,73.44z"/>
	<path class="st2" d="M125.74,76.86c-0.77-0.62-1.23-0.93-1.61-1.31c-0.28-0.28-0.45-0.65-0.66-0.97
		c2.19-3.04,7.59-8.55,11.28-11.53c1.13,0.33,1.78,1.11,2.1,2.32c-0.21,0.3-0.38,0.68-0.66,0.96
		C132.8,69.76,129.39,73.18,125.74,76.86z"/>
	<path class="st0" d="M182.87,257.11c-0.6,0.46-1.22,0.41-1.85,0.05c-0.65-3.12-0.68-15.27-0.04-18.72c0.24-0.1,0.47-0.28,0.71-0.29
		c0.38-0.01,0.77,0.1,1.13,0.15C183.49,241.5,183.51,253.62,182.87,257.11z"/>
	<path class="st0" d="M252.01,238.37c0.49,5.03,0.39,15.64-0.13,18.72c-0.59,0.48-1.22,0.43-1.85,0.1
		c-0.14-0.23-0.39-0.46-0.39-0.69c-0.05-5.63-0.09-11.26-0.08-16.9C249.56,238.32,249.86,238.21,252.01,238.37z"/>
	<path class="st0" d="M179.47,31.2L179.47,31.2c-0.04,0.03-0.08,0.06-0.12,0.1L179.47,31.2z"/>
</g>
</svg>
